<svg width="57" height="15" viewBox="0 0 57 15" fill="none" xmlns="http://www.w3.org/2000/svg">
  <mask id="path-1-inside-1_136_18" fill="white">
    <path fill-rule="evenodd" clip-rule="evenodd" d="M12.053 5.75611C8.17661 8.18639 6.42558 8.84693 2.14545 8.86133H-147C-153.627 8.86133 -159 14.2339 -159 20.8613V584.001H216V20.8613C216 14.2339 210.627 8.86133 204 8.86133H54.8546C50.5744 8.84693 48.8234 8.18639 44.947 5.75611C40.8404 2.2142 34.9912 0 28.5 0C22.0088 0 16.1596 2.2142 12.053 5.75611Z" />
  </mask>
  <g filter="url(#filter0_i_136_18)">
    <path fill-rule="evenodd" clip-rule="evenodd" d="M12.053 5.75611C8.17661 8.18639 6.42558 8.84693 2.14545 8.86133H-147C-153.627 8.86133 -159 14.2339 -159 20.8613V584.001H216V20.8613C216 14.2339 210.627 8.86133 204 8.86133H54.8546C50.5744 8.84693 48.8234 8.18639 44.947 5.75611C40.8404 2.2142 34.9912 0 28.5 0C22.0088 0 16.1596 2.2142 12.053 5.75611Z" fill="white" />
  </g>
  <path d="M2.14545 8.86133L2.14545 9.86133L2.14881 9.86132L2.14545 8.86133ZM12.053 5.75611L12.5842 6.60337L12.6486 6.563L12.7061 6.51337L12.053 5.75611ZM-159 584.001H-160V585.001H-159V584.001ZM216 584.001V585.001H217V584.001H216ZM54.8546 8.86133L54.8512 9.86133H54.8546V8.86133ZM44.947 5.75611L44.2939 6.51337L44.3514 6.563L44.4158 6.60337L44.947 5.75611ZM2.14881 9.86132C4.33923 9.85395 5.96235 9.68167 7.55799 9.16627C9.13992 8.6553 10.6343 7.82582 12.5842 6.60337L11.5218 4.90886C9.59528 6.11668 8.27597 6.83261 6.94326 7.26308C5.62426 7.68912 4.2318 7.8543 2.14208 7.86133L2.14881 9.86132ZM-147 9.86133H2.14545V7.86133H-147V9.86133ZM-158 20.8613C-158 14.7862 -153.075 9.86133 -147 9.86133V7.86133C-154.18 7.86133 -160 13.6816 -160 20.8613H-158ZM-158 584.001V20.8613H-160V584.001H-158ZM216 583.001H-159V585.001H216V583.001ZM215 20.8613V584.001H217V20.8613H215ZM204 9.86133C210.075 9.86133 215 14.7862 215 20.8613H217C217 13.6816 211.18 7.86133 204 7.86133V9.86133ZM54.8546 9.86133H204V7.86133H54.8546V9.86133ZM44.4158 6.60337C46.3657 7.82582 47.8601 8.6553 49.442 9.16627C51.0377 9.68167 52.6608 9.85395 54.8512 9.86132L54.8579 7.86133C52.7682 7.8543 51.3757 7.68912 50.0567 7.26308C48.724 6.83261 47.4047 6.11668 45.4782 4.90886L44.4158 6.60337ZM28.5 1C34.7696 1 40.3821 3.1395 44.2939 6.51337L45.6001 4.99886C41.2986 1.2889 35.2128 -1 28.5 -1V1ZM12.7061 6.51337C16.6179 3.1395 22.2304 1 28.5 1V-1C21.7872 -1 15.7014 1.2889 11.3999 4.99886L12.7061 6.51337Z" fill="url(#paint0_linear_136_18)" mask="url(#path-1-inside-1_136_18)" />
  <path d="M2.14545 8.86133L2.14545 9.86133L2.14881 9.86132L2.14545 8.86133ZM12.053 5.75611L12.5842 6.60337L12.6486 6.563L12.7061 6.51337L12.053 5.75611ZM-159 584.001H-160V585.001H-159V584.001ZM216 584.001V585.001H217V584.001H216ZM54.8546 8.86133L54.8512 9.86133H54.8546V8.86133ZM44.947 5.75611L44.2939 6.51337L44.3514 6.563L44.4158 6.60337L44.947 5.75611ZM2.14881 9.86132C4.33923 9.85395 5.96235 9.68167 7.55799 9.16627C9.13992 8.6553 10.6343 7.82582 12.5842 6.60337L11.5218 4.90886C9.59528 6.11668 8.27597 6.83261 6.94326 7.26308C5.62426 7.68912 4.2318 7.8543 2.14208 7.86133L2.14881 9.86132ZM-147 9.86133H2.14545V7.86133H-147V9.86133ZM-158 20.8613C-158 14.7862 -153.075 9.86133 -147 9.86133V7.86133C-154.18 7.86133 -160 13.6816 -160 20.8613H-158ZM-158 584.001V20.8613H-160V584.001H-158ZM216 583.001H-159V585.001H216V583.001ZM215 20.8613V584.001H217V20.8613H215ZM204 9.86133C210.075 9.86133 215 14.7862 215 20.8613H217C217 13.6816 211.18 7.86133 204 7.86133V9.86133ZM54.8546 9.86133H204V7.86133H54.8546V9.86133ZM44.4158 6.60337C46.3657 7.82582 47.8601 8.6553 49.442 9.16627C51.0377 9.68167 52.6608 9.85395 54.8512 9.86132L54.8579 7.86133C52.7682 7.8543 51.3757 7.68912 50.0567 7.26308C48.724 6.83261 47.4047 6.11668 45.4782 4.90886L44.4158 6.60337ZM28.5 1C34.7696 1 40.3821 3.1395 44.2939 6.51337L45.6001 4.99886C41.2986 1.2889 35.2128 -1 28.5 -1V1ZM12.7061 6.51337C16.6179 3.1395 22.2304 1 28.5 1V-1C21.7872 -1 15.7014 1.2889 11.3999 4.99886L12.7061 6.51337Z" fill="url(#paint1_linear_136_18)" mask="url(#path-1-inside-1_136_18)" />
  <defs>
    <filter id="filter0_i_136_18" x="-159" y="0" width="375" height="586.001" filterUnits="userSpaceOnUse" color-interpolation-filters="sRGB">
      <feFlood flood-opacity="0" result="BackgroundImageFix" />
      <feBlend mode="normal" in="SourceGraphic" in2="BackgroundImageFix" result="shape" />
      <feColorMatrix in="SourceAlpha" type="matrix" values="0 0 0 0 0 0 0 0 0 0 0 0 0 0 0 0 0 0 127 0" result="hardAlpha" />
      <feOffset dy="2" />
      <feGaussianBlur stdDeviation="2" />
      <feComposite in2="hardAlpha" operator="arithmetic" k2="-1" k3="1" />
      <feColorMatrix type="matrix" values="0 0 0 0 1 0 0 0 0 1 0 0 0 0 1 0 0 0 0.32 0" />
      <feBlend mode="normal" in2="shape" result="effect1_innerShadow_136_18" />
    </filter>
    <linearGradient id="paint0_linear_136_18" x1="137" y1="427.327" x2="137" y2="18.5269" gradientUnits="userSpaceOnUse">
      <stop offset="0.899035" stop-opacity="0" />
      <stop offset="1" stop-color="#50ABFF" />
    </linearGradient>
    <linearGradient id="paint1_linear_136_18" x1="-159" y1="21.3462" x2="216" y2="21.3462" gradientUnits="userSpaceOnUse">
      <stop stop-color="#56D6FF" stop-opacity="0" />
      <stop offset="0.329283" stop-color="#B7E5FF" stop-opacity="0" />
      <stop offset="0.50321" stop-color="white" />
      <stop offset="0.652671" stop-color="#DBF0FF" stop-opacity="0" />
      <stop offset="1" stop-color="#7CE7FF" stop-opacity="0" />
    </linearGradient>
  </defs>
</svg>