<svg width="20" height="18" viewBox="0 0 20 18" fill="none" xmlns="http://www.w3.org/2000/svg">
<path fill-rule="evenodd" clip-rule="evenodd" d="M7.83469 1.55018C8.12271 0.618561 8.98964 -0.0122994 9.96469 0.000181925C10.9452 -0.00966892 11.8139 0.630633 12.0947 1.57018L12.7547 3.57018C13.0511 4.49581 13.9128 5.12289 14.8847 5.12018H16.9647C17.9595 5.08249 18.8598 5.70582 19.1746 6.65023C19.4894 7.59463 19.1431 8.63347 18.3247 9.20018L16.6147 10.4502C15.8265 11.0163 15.4949 12.0272 15.7947 12.9502L16.4547 14.9502C16.6815 15.6425 16.559 16.4019 16.126 16.9878C15.693 17.5737 15.0031 17.9137 14.2747 17.9002C13.8023 17.8966 13.3434 17.7425 12.9647 17.4602L11.3247 16.2102C10.5382 15.6365 9.47119 15.6365 8.68469 16.2102L6.96469 17.4602C6.58141 17.7686 6.10655 17.9409 5.61468 17.9502C4.88096 17.9563 4.19036 17.6042 3.76425 17.0069C3.33815 16.4095 3.23008 15.642 3.47468 14.9502L4.13468 12.9502C4.45267 12.03 4.13691 11.0098 3.35468 10.4302L1.64468 9.18018C0.852053 8.61152 0.518592 7.59527 0.820215 6.66755C1.12184 5.73983 1.98918 5.11399 2.96468 5.12018H5.04468C6.02201 5.12014 6.88543 4.48372 7.17469 3.55018L7.83469 1.55018ZM10.4947 2.07018C10.4332 1.83072 10.2116 1.66766 9.96468 1.68018C9.70551 1.67131 9.47942 1.85474 9.43468 2.11018L8.77468 4.11018C8.25016 5.7265 6.74398 6.8208 5.04468 6.82018H2.92469C2.68904 6.82697 2.48288 6.98059 2.40901 7.20446C2.33513 7.42832 2.40936 7.67448 2.59468 7.82018L4.30468 9.07018C5.68397 10.0678 6.26176 11.8416 5.73468 13.4602L5.07468 15.4602C5.00986 15.6244 5.03647 15.8107 5.14468 15.9502C5.25691 16.1117 5.43816 16.2116 5.63469 16.2202C5.75471 16.2166 5.87039 16.1745 5.96468 16.1002L7.65468 14.8502C9.0321 13.8494 10.8973 13.8494 12.2747 14.8502L13.9447 16.0402C14.039 16.1145 14.1547 16.1566 14.2747 16.1602C14.4623 16.148 14.6347 16.0526 14.7447 15.9002C14.8529 15.7607 14.8795 15.5744 14.8147 15.4102L14.1547 13.4102C13.6276 11.7916 14.2054 10.0178 15.5847 9.02018L17.2947 7.78018C17.48 7.63448 17.5542 7.38832 17.4804 7.16446C17.4065 6.94059 17.2003 6.78697 16.9647 6.78018H14.8847C13.1854 6.7808 11.6792 5.6865 11.1547 4.07018L10.4947 2.07018Z" fill="#343434"/>
</svg>
