<svg width="21" height="20" viewBox="0 0 21 20" fill="none" xmlns="http://www.w3.org/2000/svg">
<path fill-rule="evenodd" clip-rule="evenodd" d="M4.5 0H16.5C18.7091 0 20.5 1.79086 20.5 4V16C20.5 18.2091 18.7091 20 16.5 20H4.5C2.29086 20 0.5 18.2091 0.5 16V4C0.5 1.79086 2.29086 0 4.5 0ZM18.2041 17.7041C18.6561 17.2522 18.91 16.6392 18.91 16V4C18.91 3.36083 18.6561 2.74784 18.2041 2.29587C17.7522 1.84391 17.1392 1.59 16.5 1.59H4.5C3.16899 1.59 2.09 2.66899 2.09 4V16C2.09 16.6392 2.34391 17.2522 2.79587 17.7041C3.24784 18.1561 3.86083 18.41 4.5 18.41H16.5C17.1392 18.41 17.7522 18.1561 18.2041 17.7041Z" fill="#343434"/>
<circle cx="6" cy="5.5" r="1.5" fill="#343434"/>
<circle cx="15" cy="5.5" r="1.5" fill="#343434"/>
<circle cx="15" cy="14.5" r="1.5" fill="#343434"/>
<circle cx="6" cy="14.5" r="1.5" fill="#343434"/>
</svg>
