<svg width="19" height="18" viewBox="0 0 19 18" fill="none" xmlns="http://www.w3.org/2000/svg">
<path d="M15.8705 5.97578L8.7155 0.725777C8.15667 0.316566 7.49542 0.0701226 6.80507 0.0137743C6.11473 -0.042574 5.42227 0.0933744 4.80447 0.406545C4.18667 0.719715 3.66768 1.19787 3.30504 1.78799C2.9424 2.37811 2.75029 3.05714 2.75 3.74978V14.2498C2.75012 14.9427 2.94225 15.6221 3.30506 16.2125C3.66786 16.8029 4.18716 17.2812 4.80532 17.5943C5.42347 17.9075 6.11631 18.0432 6.80693 17.9865C7.49756 17.9298 8.15897 17.6828 8.71775 17.273L15.8727 12.023C16.3477 11.6747 16.7339 11.2194 17.0002 10.6941C17.2664 10.1687 17.4051 9.588 17.4051 8.99903C17.4051 8.41005 17.2664 7.82936 17.0002 7.30398C16.7339 6.77861 16.3477 6.32333 15.8727 5.97503L15.8705 5.97578ZM14.9825 10.8133L7.8275 16.0633C7.49226 16.3082 7.09578 16.4557 6.68193 16.4893C6.26808 16.5228 5.85302 16.4412 5.48268 16.2535C5.11233 16.0658 4.80116 15.7792 4.5836 15.4256C4.36604 15.0719 4.25058 14.665 4.25 14.2498V3.74978C4.24584 3.33379 4.35912 2.92506 4.57683 2.57057C4.79454 2.21608 5.10785 1.93019 5.48075 1.74578C5.79792 1.58445 6.14866 1.50017 6.5045 1.49978C6.98142 1.5016 7.44516 1.65644 7.8275 1.94153L14.9825 7.19153C15.2671 7.40055 15.4985 7.67363 15.6581 7.98868C15.8176 8.30373 15.9007 8.6519 15.9007 9.00503C15.9007 9.35816 15.8176 9.70633 15.6581 10.0214C15.4985 10.3364 15.2671 10.6095 14.9825 10.8185V10.8133Z" fill="#343434"/>
</svg>
