<svg width="19" height="18" viewBox="0 0 19 18" fill="none" xmlns="http://www.w3.org/2000/svg">
  <path fill-rule="evenodd" clip-rule="evenodd" d="M18.3753 8.32006C18.2331 6.02352 17.204 3.87211 15.5053 2.32006L15.4953 2.26006C15.4196 2.16718 15.319 2.0978 15.2053 2.06006C13.6044 0.721709 11.582 -0.00790427 9.49533 6.45923e-05H8.90533C7.78912 0.100288 6.70094 0.405384 5.69533 0.900065H5.60533C1.88176 2.7153 -0.097092 6.85954 0.832114 10.8964C1.76132 14.9334 5.35286 17.7954 9.49533 17.8001H10.0853C12.4423 17.6435 14.6403 16.5565 16.1952 14.7783C17.7502 13.0002 18.5345 10.6768 18.3753 8.32006ZM11.6953 8.67006C11.3753 8.05006 11.0453 7.43006 10.6953 6.83006C11.8036 6.21899 12.8457 5.49516 13.8053 4.67006L14.8053 3.79006C15.951 4.99195 16.6559 6.54635 16.8053 8.20006C15.1265 8.02579 13.4298 8.1717 11.8053 8.63006L11.6953 8.67006ZM9.50533 1.52006H9.01533C8.39828 1.56916 7.79003 1.69686 7.20533 1.90006C8.19054 3.05375 9.09597 4.27324 9.91533 5.55006C10.9538 4.98391 11.9322 4.31381 12.8353 3.55006L13.6653 2.83006C12.4443 1.98027 10.993 1.52326 9.50533 1.52006ZM5.78533 2.52006L5.85533 2.59006C6.84335 3.73799 7.74894 4.95436 8.56533 6.23006C7.00679 6.91146 5.35525 7.35637 3.66533 7.55006L2.20533 7.71006C2.56499 5.53019 3.87734 3.62397 5.78533 2.51006V2.52006ZM2.11533 9.22006V9.38006C2.23733 11.1065 2.96306 12.735 4.16533 13.9801C5.20166 12.3798 6.60792 11.0524 8.26533 10.1101C8.91302 9.7608 9.58086 9.45025 10.2653 9.18006C9.97533 8.61006 9.67533 8.05006 9.35533 7.50006C7.60682 8.29603 5.74411 8.81233 3.83533 9.03006L2.11533 9.22006ZM9.97533 16.2801H9.48533C7.97748 16.2777 6.50716 15.8097 5.27533 14.9401C6.19265 13.4784 7.45674 12.2658 8.95533 11.4101C9.60365 11.0708 10.2715 10.7703 10.9553 10.5101C11.6211 11.981 12.1793 13.4983 12.6253 15.0501L12.7653 15.5301C11.8956 15.966 10.9465 16.2211 9.97533 16.2801ZM14.0553 14.7201C14.4171 14.4385 14.7519 14.1238 15.0553 13.7801C16.0681 12.6413 16.7008 11.2152 16.8653 9.70006C15.3573 9.53115 13.8309 9.64648 12.3653 10.0401C13.0379 11.5379 13.6026 13.0818 14.0553 14.6601V14.7201Z" fill="#3399E2" />
</svg>
