<svg width="38" height="38" viewBox="0 0 38 38" fill="none" xmlns="http://www.w3.org/2000/svg">
<rect x="0.5" y="0.5" width="37" height="37" rx="18.5" fill="url(#paint0_linear_2163_23115)" stroke="url(#paint1_linear_2163_23115)"/>
<path fill-rule="evenodd" clip-rule="evenodd" d="M18.2096 10.8414C18.6697 10.4656 19.3307 10.4656 19.7908 10.8414L25.0883 15.1672C25.3791 15.4046 25.5477 15.7601 25.5477 16.1354V24.5506C25.5477 24.8147 25.4474 25.0611 25.2797 25.2372C25.1131 25.4121 24.8951 25.5032 24.676 25.5032H22.3173V17.7403C22.3173 17.3261 21.9815 16.9903 21.5673 16.9903H16.5673C16.1531 16.9903 15.8173 17.3261 15.8173 17.7403V25.5032H13.3243C13.1052 25.5032 12.8873 25.4121 12.7207 25.2372C12.5529 25.0611 12.4526 24.8147 12.4526 24.5506V16.1354C12.4526 15.7601 12.6213 15.4046 12.912 15.1672L18.2096 10.8414ZM17.3173 25.5032H20.8173V18.4903H17.3173V25.5032ZM20.7395 9.67951C19.7273 8.85292 18.2731 8.85292 17.2608 9.67951L11.9633 14.0053C11.3237 14.5276 10.9526 15.3097 10.9526 16.1354V24.5506C10.9526 25.1896 11.1941 25.8093 11.6345 26.2718C12.0762 26.7354 12.6832 27.0032 13.3243 27.0032H24.676C25.3172 27.0032 25.9242 26.7354 26.3658 26.2718C26.8063 25.8093 27.0477 25.1896 27.0477 24.5506V16.1354C27.0477 15.3097 26.6767 14.5276 26.0371 14.0053L20.7395 9.67951Z" fill="url(#paint2_linear_2163_23115)"/>
<defs>
<linearGradient id="paint0_linear_2163_23115" x1="2.44286" y1="1.98324" x2="25.7044" y2="38.447" gradientUnits="userSpaceOnUse">
<stop stop-color="#717379"/>
<stop offset="0.638974" stop-color="#080E13"/>
</linearGradient>
<linearGradient id="paint1_linear_2163_23115" x1="33.3857" y1="32.9164" x2="11.2858" y2="-0.221711" gradientUnits="userSpaceOnUse">
<stop stop-color="#248DB6"/>
<stop offset="0.58" stop-color="#171525" stop-opacity="0"/>
</linearGradient>
<linearGradient id="paint2_linear_2163_23115" x1="18.1149" y1="25.3209" x2="18.1149" y2="10.181" gradientUnits="userSpaceOnUse">
<stop stop-color="#248DB6"/>
<stop offset="1" stop-color="#7DD9FF"/>
</linearGradient>
</defs>
</svg>
