<svg width="38" height="38" viewBox="0 0 38 38" fill="none" xmlns="http://www.w3.org/2000/svg">
<rect x="0.5" y="0.5" width="37" height="37" rx="18.5" fill="url(#paint0_linear_2163_23187)" stroke="#248DB6"/>
<path fill-rule="evenodd" clip-rule="evenodd" d="M19.0577 11.5C14.8837 11.5 11.5 14.8837 11.5 19.0577C11.5 23.2317 14.8837 26.6154 19.0577 26.6154C23.2317 26.6154 26.6154 23.2317 26.6154 19.0577C26.6154 14.8837 23.2317 11.5 19.0577 11.5ZM10 19.0577C10 14.0553 14.0553 10 19.0577 10C24.0601 10 28.1154 14.0553 28.1154 19.0577C28.1154 24.0601 24.0601 28.1154 19.0577 28.1154C14.0553 28.1154 10 24.0601 10 19.0577ZM19.0577 18.3077C19.4719 18.3077 19.8077 18.6435 19.8077 19.0577V22.3808C19.8077 22.795 19.4719 23.1308 19.0577 23.1308C18.6435 23.1308 18.3077 22.795 18.3077 22.3808V19.0577C18.3077 18.6435 18.6435 18.3077 19.0577 18.3077ZM19.0577 14.9846C18.6435 14.9846 18.3077 15.3204 18.3077 15.7346C18.3077 16.1489 18.6435 16.4846 19.0577 16.4846H19.0667C19.4809 16.4846 19.8167 16.1489 19.8167 15.7346C19.8167 15.3204 19.4809 14.9846 19.0667 14.9846H19.0577Z" fill="url(#paint1_linear_2163_23187)"/>
<defs>
<linearGradient id="paint0_linear_2163_23187" x1="4.22222" y1="2.63889" x2="20.5833" y2="20.5833" gradientUnits="userSpaceOnUse">
<stop stop-color="#44464E"/>
<stop offset="1"/>
</linearGradient>
<linearGradient id="paint1_linear_2163_23187" x1="18.0613" y1="26.4171" x2="18.0613" y2="11.1322" gradientUnits="userSpaceOnUse">
<stop stop-color="#248DB6"/>
<stop offset="1" stop-color="#7DD9FF"/>
</linearGradient>
</defs>
</svg>
