<svg width="38" height="38" viewBox="0 0 38 38" fill="none" xmlns="http://www.w3.org/2000/svg">
<path d="M19 37.5C8.78273 37.5 0.5 29.2173 0.5 19C0.5 8.78273 8.78273 0.5 19 0.5C29.2173 0.5 37.5 8.78273 37.5 19C37.5 29.2173 29.2173 37.5 19 37.5Z" fill="url(#paint0_linear_2163_23180)" stroke="url(#paint1_linear_2163_23180)"/>
<path d="M25.1205 15.9744L17.9655 10.7244C17.4067 10.3152 16.7454 10.0688 16.0551 10.0124C15.3647 9.95608 14.6723 10.092 14.0545 10.4052C13.4367 10.7184 12.9177 11.1965 12.555 11.7866C12.1924 12.3768 12.0003 13.0558 12 13.7484V24.2484C12.0001 24.9414 12.1922 25.6208 12.5551 26.2111C12.9179 26.8015 13.4372 27.2798 14.0553 27.593C14.6735 27.9061 15.3663 28.0419 16.0569 27.9852C16.7476 27.9285 17.409 27.6815 17.9677 27.2717L25.1227 22.0217C25.5977 21.6734 25.9839 21.2181 26.2502 20.6927C26.5164 20.1674 26.6551 19.5867 26.6551 18.9977C26.6551 18.4087 26.5164 17.828 26.2502 17.3026C25.9839 16.7773 25.5977 16.322 25.1227 15.9737L25.1205 15.9744ZM24.2325 20.8119L17.0775 26.0619C16.7423 26.3069 16.3458 26.4543 15.9319 26.4879C15.5181 26.5215 15.103 26.4399 14.7327 26.2522C14.3623 26.0644 14.0512 25.7779 13.8336 25.4242C13.616 25.0706 13.5006 24.6636 13.5 24.2484V13.7484C13.4958 13.3324 13.6091 12.9237 13.8268 12.5692C14.0445 12.2147 14.3578 11.9289 14.7307 11.7444C15.0479 11.5831 15.3987 11.4988 15.7545 11.4984C16.2314 11.5003 16.6952 11.6551 17.0775 11.9402L24.9081 17.9873C24.7485 17.6723 25.1927 18.1964 24.9081 17.9873C25.0676 18.3024 25.1507 18.6506 25.1507 19.0037C25.1507 19.3568 25.0676 19.705 24.9081 20.02C24.7485 20.3351 24.5171 20.6082 24.2325 20.8172V20.8119Z" fill="url(#paint2_linear_2163_23180)"/>
<defs>
<linearGradient id="paint0_linear_2163_23180" x1="2.44286" y1="1.98324" x2="25.7044" y2="38.447" gradientUnits="userSpaceOnUse">
<stop stop-color="#717379"/>
<stop offset="0.638974" stop-color="#080E13"/>
</linearGradient>
<linearGradient id="paint1_linear_2163_23180" x1="33.3857" y1="32.9164" x2="11.2858" y2="-0.221711" gradientUnits="userSpaceOnUse">
<stop stop-color="#248DB6"/>
<stop offset="0.58" stop-color="#171525" stop-opacity="0"/>
</linearGradient>
<linearGradient id="paint2_linear_2163_23180" x1="18.5215" y1="26.3105" x2="18.5215" y2="11.1249" gradientUnits="userSpaceOnUse">
<stop stop-color="#248DB6"/>
<stop offset="1" stop-color="#7DD9FF"/>
</linearGradient>
</defs>
</svg>
