<svg width="38" height="38" viewBox="0 0 38 38" fill="none" xmlns="http://www.w3.org/2000/svg">
<rect x="0.5" y="0.5" width="37" height="37" rx="18.5" fill="url(#paint0_linear_2163_23181)" stroke="url(#paint1_linear_2163_23181)"/>
<path fill-rule="evenodd" clip-rule="evenodd" d="M27.9795 18.4135C27.8356 16.0912 26.7945 13.9156 25.0758 12.3461L25.0657 12.2855C24.9891 12.1915 24.8874 12.1214 24.7723 12.0832C23.1526 10.7298 21.1064 9.99201 18.9953 10.0001H18.3983C17.269 10.1014 16.1681 10.4099 15.1507 10.9102H15.0596C11.2923 12.7458 9.29022 16.9366 10.2303 21.0188C11.1705 25.1011 14.8042 27.9953 18.9953 28H19.5922C21.9768 27.8417 24.2006 26.7424 25.7738 24.9443C27.347 23.1462 28.1405 20.7967 27.9795 18.4135ZM21.2211 18.7674C20.8973 18.1405 20.5635 17.5135 20.2094 16.9068C21.3306 16.2888 22.385 15.5569 23.3559 14.7225L24.3676 13.8326C25.5267 15.048 26.2399 16.6199 26.3911 18.2922C24.6925 18.1159 22.9759 18.2635 21.3324 18.727L21.2211 18.7674ZM19.0054 11.5371H18.5096C17.8853 11.5868 17.2699 11.7159 16.6784 11.9214C17.6752 13.0881 18.5912 14.3212 19.4202 15.6124C20.4709 15.0399 21.4607 14.3623 22.3745 13.5899L23.2142 12.8619C21.9788 12.0025 20.5105 11.5404 19.0054 11.5371ZM15.2417 12.5484L15.3125 12.6192C16.3122 13.78 17.2284 15.01 18.0543 16.3C16.4775 16.9891 14.8066 17.439 13.0968 17.6349L11.6197 17.7967C11.9836 15.5923 13.3113 13.6647 15.2417 12.5383V12.5484ZM11.5286 19.3236V19.4854C11.6521 21.2313 12.3863 22.8781 13.6027 24.1371C14.6512 22.5188 16.074 21.1765 17.7508 20.2236C18.4061 19.8704 19.0818 19.5564 19.7743 19.2832C19.4809 18.7068 19.1774 18.1405 18.8536 17.5843C17.0846 18.3892 15.2 18.9113 13.2688 19.1315L11.5286 19.3236ZM19.4809 26.4629H18.9852C17.4596 26.4605 15.972 25.9873 14.7257 25.1079C15.6538 23.6298 16.9327 22.4036 18.4489 21.5382C19.1049 21.1952 19.7805 20.8913 20.4724 20.6281C21.146 22.1156 21.7107 23.6499 22.162 25.2191L22.3037 25.7045C21.4237 26.1453 20.4634 26.4033 19.4809 26.4629ZM23.6088 24.8854C23.9749 24.6007 24.3136 24.2824 24.6205 23.9348C25.6452 22.7833 26.2853 21.3411 26.4518 19.809C24.926 19.6382 23.3817 19.7548 21.899 20.1528C22.5794 21.6675 23.1508 23.2288 23.6088 24.8247V24.8854Z" fill="url(#paint2_linear_2163_23181)"/>
<defs>
<linearGradient id="paint0_linear_2163_23181" x1="2.44286" y1="1.98324" x2="25.7044" y2="38.447" gradientUnits="userSpaceOnUse">
<stop stop-color="#717379"/>
<stop offset="0.638974" stop-color="#080E13"/>
</linearGradient>
<linearGradient id="paint1_linear_2163_23181" x1="33.3857" y1="32.9164" x2="11.2858" y2="-0.221711" gradientUnits="userSpaceOnUse">
<stop stop-color="#248DB6"/>
<stop offset="0.58" stop-color="#171525" stop-opacity="0"/>
</linearGradient>
<linearGradient id="paint2_linear_2163_23181" x1="18.01" y1="26.3125" x2="18.01" y2="11.125" gradientUnits="userSpaceOnUse">
<stop stop-color="#248DB6"/>
<stop offset="1" stop-color="#7DD9FF"/>
</linearGradient>
</defs>
</svg>
