<svg width="38" height="38" viewBox="0 0 38 38" fill="none" xmlns="http://www.w3.org/2000/svg">
<path d="M0.5 19C0.5 8.78273 8.78273 0.5 19 0.5C29.2173 0.5 37.5 8.78273 37.5 19C37.5 29.2173 29.2173 37.5 19 37.5C8.78273 37.5 0.5 29.2173 0.5 19Z" fill="url(#paint0_linear_5257_19349)" stroke="url(#paint1_linear_5257_19349)"/>
<path fill-rule="evenodd" clip-rule="evenodd" d="M16.1028 13.3806C16.1028 11.7021 17.4464 10.3555 19.0866 10.3555C20.7267 10.3555 22.0703 11.7021 22.0703 13.3806C22.0703 15.0592 20.7267 16.4058 19.0866 16.4058C17.4464 16.4058 16.1028 15.0592 16.1028 13.3806ZM19.0866 8.85547C16.6025 8.85547 14.6028 10.8893 14.6028 13.3806C14.6028 15.872 16.6025 17.9058 19.0866 17.9058C21.5707 17.9058 23.5703 15.872 23.5703 13.3806C23.5703 10.8893 21.5707 8.85547 19.0866 8.85547ZM15.3529 20.1797C14.1611 20.1797 13.0197 20.6585 12.1795 21.508C11.3396 22.3572 10.8691 23.5073 10.8691 24.7048V26.5924C10.8691 27.0066 11.2049 27.3424 11.6191 27.3424C12.0334 27.3424 12.3691 27.0066 12.3691 26.5924V24.7048C12.3691 23.8999 12.6855 23.1295 13.246 22.5628C13.8062 21.9964 14.5643 21.6797 15.3529 21.6797H22.8205C23.6092 21.6797 24.3673 21.9964 24.9275 22.5628C25.488 23.1295 25.8043 23.8999 25.8043 24.7048V26.5924C25.8043 27.0066 26.1401 27.3424 26.5543 27.3424C26.9685 27.3424 27.3043 27.0066 27.3043 26.5924V24.7048C27.3043 23.5073 26.8339 22.3572 25.994 21.508C25.1537 20.6585 24.0124 20.1797 22.8205 20.1797H15.3529Z" fill="url(#paint2_linear_5257_19349)"/>
<defs>
<linearGradient id="paint0_linear_5257_19349" x1="4.22222" y1="2.63889" x2="20.5833" y2="20.5833" gradientUnits="userSpaceOnUse">
<stop stop-color="#44464E"/>
<stop offset="1"/>
</linearGradient>
<linearGradient id="paint1_linear_5257_19349" x1="3.16667" y1="3.69444" x2="33.25" y2="33.7778" gradientUnits="userSpaceOnUse">
<stop stop-color="#414246" stop-opacity="0.26"/>
<stop offset="1" stop-color="#24B0FE"/>
</linearGradient>
<linearGradient id="paint2_linear_5257_19349" x1="20.3253" y1="27.3424" x2="20.3253" y2="8.85547" gradientUnits="userSpaceOnUse">
<stop stop-color="#248DB6"/>
<stop offset="1" stop-color="#7DD9FF"/>
</linearGradient>
</defs>
</svg>
