<svg width="38" height="38" viewBox="0 0 38 38" fill="none" xmlns="http://www.w3.org/2000/svg">
<rect x="0.5" y="0.5" width="37" height="37" rx="18.5" fill="url(#paint0_linear_2163_23185)" stroke="url(#paint1_linear_2163_23185)"/>
<path fill-rule="evenodd" clip-rule="evenodd" d="M17.4423 11.6874C19.0456 11.3252 20.7229 11.4909 22.2243 12.1599C22.6026 12.3284 23.046 12.1584 23.2146 11.78C23.3832 11.4017 23.2131 10.9583 22.8348 10.7897C21.038 9.98911 19.0305 9.79077 17.1118 10.2243C15.193 10.6578 13.4658 11.6999 12.1877 13.1953C10.9097 14.6906 10.1492 16.559 10.0198 18.5219C9.89034 20.4847 10.3989 22.4368 11.4695 24.087C12.5402 25.7373 14.1156 26.9972 15.9608 27.6789C17.806 28.3606 19.8221 28.4276 21.7085 27.8698C23.5949 27.3121 25.2505 26.1595 26.4283 24.584C27.6061 23.0085 28.243 21.0944 28.2442 19.1273V19.1269V18.3566C28.2442 17.9424 27.9084 17.6066 27.4942 17.6066C27.08 17.6066 26.7442 17.9424 26.7442 18.3566V19.1265C26.7432 20.7701 26.211 22.3694 25.2269 23.6859C24.2427 25.0023 22.8594 25.9654 21.2832 26.4314C19.707 26.8974 18.0224 26.8414 16.4806 26.2718C14.9388 25.7022 13.6225 24.6495 12.7279 23.2706C11.8333 21.8918 11.4084 20.2607 11.5165 18.6206C11.6247 16.9805 12.2601 15.4193 13.328 14.1699C14.3959 12.9204 15.8391 12.0496 17.4423 11.6874ZM28.0248 12.9593C28.3175 12.6662 28.3173 12.1914 28.0242 11.8986C27.7312 11.6059 27.2563 11.6061 26.9636 11.8992L19.1218 19.7488L17.1408 17.7677C16.8479 17.4748 16.373 17.4748 16.0801 17.7677C15.7872 18.0606 15.7872 18.5355 16.0801 18.8284L18.5918 21.34C18.7325 21.4807 18.9233 21.5597 19.1223 21.5597C19.3213 21.5596 19.5121 21.4805 19.6527 21.3397L28.0248 12.9593Z" fill="url(#paint2_linear_2163_23185)"/>
<defs>
<linearGradient id="paint0_linear_2163_23185" x1="2.44286" y1="1.98324" x2="25.7044" y2="38.447" gradientUnits="userSpaceOnUse">
<stop stop-color="#717379"/>
<stop offset="0.638974" stop-color="#080E13"/>
</linearGradient>
<linearGradient id="paint1_linear_2163_23185" x1="33.3857" y1="32.9164" x2="11.2858" y2="-0.221711" gradientUnits="userSpaceOnUse">
<stop stop-color="#248DB6"/>
<stop offset="0.58" stop-color="#171525" stop-opacity="0"/>
</linearGradient>
<linearGradient id="paint2_linear_2163_23185" x1="18.1187" y1="26.5338" x2="18.1187" y2="11.1403" gradientUnits="userSpaceOnUse">
<stop stop-color="#248DB6"/>
<stop offset="1" stop-color="#7DD9FF" stop-opacity="0.858824"/>
</linearGradient>
</defs>
</svg>
