<svg width="38" height="38" viewBox="0 0 38 38" fill="none" xmlns="http://www.w3.org/2000/svg">
<path d="M19 37.5C8.78273 37.5 0.5 29.2173 0.5 19C0.5 8.78273 8.78273 0.5 19 0.5C29.2173 0.5 37.5 8.78273 37.5 19C37.5 29.2173 29.2173 37.5 19 37.5Z" fill="url(#paint0_linear_2163_23186)" stroke="url(#paint1_linear_2163_23186)"/>
<path fill-rule="evenodd" clip-rule="evenodd" d="M13.6528 13.6528C15.0312 12.2744 16.9007 11.5 18.85 11.5C20.7993 11.5 22.6688 12.2744 24.0472 13.6528C25.4256 15.0312 26.2 16.9007 26.2 18.85V19.9H24.25C23.5737 19.9 22.9251 20.1687 22.4469 20.6469C21.9687 21.1251 21.7 21.7737 21.7 22.45V25.15C21.7 25.8263 21.9687 26.4749 22.4469 26.9531C22.9251 27.4313 23.5737 27.7 24.25 27.7H25.15C25.8263 27.7 26.4749 27.4313 26.9531 26.9531C27.4313 26.4749 27.7 25.8263 27.7 25.15V24.25V20.65V18.85C27.7 16.5028 26.7676 14.2518 25.1079 12.5921C23.4482 10.9324 21.1972 10 18.85 10C16.5028 10 14.2518 10.9324 12.5921 12.5921C10.9324 14.2518 10 16.5028 10 18.85V20.65V24.25V25.15C10 25.8263 10.2687 26.4749 10.7469 26.9531C11.2251 27.4313 11.8737 27.7 12.55 27.7H13.45C14.1263 27.7 14.7749 27.4313 15.2531 26.9531C15.7313 26.4749 16 25.8263 16 25.15V22.45C16 21.7737 15.7313 21.1251 15.2531 20.6469C14.7749 20.1687 14.1263 19.9 13.45 19.9H11.5V18.85C11.5 16.9007 12.2744 15.0312 13.6528 13.6528ZM11.5 21.4V24.25V25.15C11.5 25.4285 11.6106 25.6955 11.8075 25.8925C12.0045 26.0894 12.2715 26.2 12.55 26.2H13.45C13.7285 26.2 13.9955 26.0894 14.1925 25.8925C14.3894 25.6955 14.5 25.4285 14.5 25.15V22.45C14.5 22.1715 14.3894 21.9045 14.1925 21.7075C13.9955 21.5106 13.7285 21.4 13.45 21.4H11.5ZM26.2 21.4H24.25C23.9715 21.4 23.7045 21.5106 23.5075 21.7075C23.3106 21.9045 23.2 22.1715 23.2 22.45V25.15C23.2 25.4285 23.3106 25.6955 23.5075 25.8925C23.7045 26.0894 23.9715 26.2 24.25 26.2H25.15C25.4285 26.2 25.6955 26.0894 25.8925 25.8925C26.0894 25.6955 26.2 25.4285 26.2 25.15V24.25V21.4Z" fill="url(#paint2_linear_2163_23186)"/>
<defs>
<linearGradient id="paint0_linear_2163_23186" x1="2.44286" y1="1.98324" x2="25.7044" y2="38.447" gradientUnits="userSpaceOnUse">
<stop stop-color="#717379"/>
<stop offset="0.638974" stop-color="#080E13"/>
</linearGradient>
<linearGradient id="paint1_linear_2163_23186" x1="33.3857" y1="32.9164" x2="11.2858" y2="-0.221711" gradientUnits="userSpaceOnUse">
<stop stop-color="#248DB6"/>
<stop offset="0.58" stop-color="#171525" stop-opacity="0"/>
</linearGradient>
<linearGradient id="paint2_linear_2163_23186" x1="17.8765" y1="26.0406" x2="17.8765" y2="11.1063" gradientUnits="userSpaceOnUse">
<stop stop-color="#248DB6"/>
<stop offset="1" stop-color="#7DD9FF"/>
</linearGradient>
</defs>
</svg>
