<svg width="21" height="16" viewBox="0 0 21 16" fill="none" xmlns="http://www.w3.org/2000/svg">
<path fill-rule="evenodd" clip-rule="evenodd" d="M0 2.5C0 1.39543 0.895431 0.5 2 0.5H19C20.1046 0.5 21 1.39543 21 2.5V13.5C21 14.6046 20.1046 15.5 19 15.5H2C0.89543 15.5 0 14.6046 0 13.5V2.5Z" fill="#009EDB"/>
<path d="M12.6667 13.2506C12.5878 13.3398 12.4856 13.4232 12.3894 13.5C11.7675 12.8642 11.0373 12.1596 10.3433 12.1596C9.91301 12.1596 9.60311 12.4836 9.24157 12.7122C8.73981 13.0294 8.05159 13.2081 7.46181 12.9753C7.14459 12.8561 6.83724 12.6806 6.60754 12.3955C7.07174 12.7122 7.76688 12.7548 8.29096 12.5397C8.87022 12.3019 9.45979 11.9863 10.1199 11.9863C11.093 11.9863 12.0179 12.6374 12.6667 13.2506ZM5.47453 11.2509C6.11882 11.9764 7.16961 11.743 8.02971 11.9242C8.14942 11.9494 8.26187 11.9887 8.39037 11.9692C8.28815 11.9051 8.15259 11.8978 8.03448 11.8538C7.36714 11.6051 7.2631 10.8986 6.89787 10.4124C7.36436 10.7191 7.75083 11.1391 8.18703 11.5338C8.4906 11.8085 8.86884 11.926 9.26114 12.005C9.16688 12.0391 9.04356 12.031 8.94204 12.0559C8.23741 12.2289 7.45619 12.5018 6.70643 12.2571C6.22254 12.0991 5.71902 11.725 5.47453 11.2509ZM4.44178 9.57177C4.84366 10.4718 5.85335 10.5423 6.5247 11.0945C6.65235 11.1995 6.77892 11.2961 6.91914 11.3608L6.92637 11.3535C6.77145 11.2149 6.60382 11.0497 6.48381 10.8772C6.1001 10.3257 6.22781 9.5718 5.93194 8.98708C6.20074 9.30546 6.45285 9.63329 6.60763 9.99783C6.85669 10.5845 6.94131 11.2537 7.49992 11.6994C6.89535 11.5021 6.19787 11.5414 5.65344 11.1886C5.08118 10.8179 4.55081 10.2326 4.44178 9.57177ZM4.01129 7.7508C4.06941 8.54379 4.92283 8.96738 5.3298 9.61924C5.41671 9.75846 5.50613 9.90218 5.63238 10.0146C5.6127 9.9302 5.54246 9.85538 5.50379 9.77254C5.3733 9.49285 5.31422 9.16919 5.34679 8.83636C5.38645 8.43143 5.5571 8.05539 5.49161 7.62939C5.84237 8.37834 5.72922 9.31465 5.93194 10.1244C5.97678 10.3036 6.08706 10.4604 6.15502 10.6301C5.81038 10.3707 5.35874 10.1405 4.98045 9.84553C4.6146 9.56027 4.29703 9.22593 4.13197 8.79086C4.01305 8.47738 3.98209 8.10346 4.01129 7.7508ZM4.03514 6.2897C4.07629 6.11271 4.10778 5.92953 4.18563 5.76719C4.03827 6.51524 4.54134 7.0556 4.71311 7.70279C4.77784 7.94667 4.79998 8.2058 4.89969 8.4334C4.90898 8.43832 4.91703 8.42876 4.92277 8.4214C4.67459 7.73263 5.03841 7.09608 5.39287 6.55317C5.48601 6.41046 5.53089 6.24429 5.57438 6.07629C5.6127 6.3881 5.54562 6.74904 5.4873 7.07078C5.41223 7.48501 5.26911 7.87325 5.15537 8.2729C5.08048 8.52258 5.10022 8.80437 5.13865 9.06595L5.1025 9.03744C4.83862 8.55553 4.31797 8.17905 4.16074 7.65307C4.03508 7.23269 3.94814 6.74704 4.03514 6.2897ZM4.31346 5.48502C4.31346 4.91894 4.53628 4.45716 4.87052 4.03557C4.88021 4.03079 4.88713 4.02117 4.89963 4.0234C4.53171 4.57709 4.86659 5.27597 4.81932 5.90395L4.77078 6.54847C4.77799 6.55317 4.77799 6.57252 4.79509 6.5651C4.81683 6.49325 4.82342 6.41681 4.83607 6.3426C4.92465 5.82302 5.38586 5.46135 5.77705 5.09453C5.86651 5.01073 5.93614 4.9084 5.98094 4.79486C5.94843 5.0537 5.87544 5.31903 5.75798 5.55425C5.4569 6.15722 4.87538 6.64395 4.77078 7.32918C4.72008 6.67246 4.31346 6.18425 4.31346 5.48502ZM5.28335 3.57547C5.46835 3.37253 5.67573 3.21444 5.9226 3.15194C5.44322 3.478 5.46926 4.06078 5.32248 4.54805C5.26882 4.72622 5.18994 4.89315 5.14799 5.07729L5.16015 5.08685C5.23988 4.87869 5.37673 4.67859 5.55502 4.51218C5.89219 4.19751 6.39913 4.00703 6.56597 3.54673C6.55836 4.18639 6.00713 4.67265 5.5037 5.0488C5.27787 5.21756 5.08601 5.44408 4.96891 5.68156C4.98847 5.50482 4.99735 5.35777 4.98141 5.18525C4.92974 4.62646 4.89621 4.00005 5.28335 3.57547ZM7.2291 2.5C6.87333 2.80882 6.63595 3.20633 6.36261 3.56365C6.13531 3.86085 5.82339 4.04499 5.55514 4.29438C5.69992 3.99721 5.72667 3.65669 5.91056 3.3692C6.225 2.87758 6.74471 2.68677 7.2291 2.5Z" fill="white"/>
<path d="M9.41667 13.2506C9.48571 13.3398 9.57506 13.4232 9.65928 13.5C10.2035 12.8642 10.8423 12.1596 11.4496 12.1596C11.8261 12.1596 12.0973 12.4835 12.4136 12.7122C12.8527 13.0294 13.4549 13.2081 13.9709 12.9753C14.2485 12.8561 14.5174 12.6806 14.7184 12.3955C14.3122 12.7122 13.704 12.7548 13.2454 12.5397C12.7386 12.3019 12.2227 11.9863 11.6451 11.9863C10.7936 11.9863 9.98436 12.6374 9.41667 13.2506ZM15.7098 11.2509C15.146 11.9764 14.2266 11.743 13.474 11.9242C13.3693 11.9494 13.2709 11.9887 13.1584 11.9692C13.2479 11.9051 13.3665 11.8978 13.4698 11.8538C14.0537 11.6051 14.1448 10.8986 14.4644 10.4124C14.0562 10.7191 13.718 11.1391 13.3363 11.5338C13.0707 11.8085 12.7398 11.926 12.3965 12.005C12.479 12.0391 12.5869 12.031 12.6757 12.0559C13.2923 12.2289 13.9758 12.5018 14.6319 12.2571C15.0553 12.0991 15.4959 11.725 15.7098 11.2509ZM16.6134 9.57177C16.2618 10.4718 15.3783 10.5423 14.7909 11.0945C14.6792 11.1995 14.5684 11.2961 14.4458 11.3608L14.4394 11.3535C14.575 11.2149 14.7217 11.0497 14.8267 10.8772C15.1624 10.3257 15.0507 9.5718 15.3096 8.98708C15.0743 9.30546 14.8538 9.63329 14.7183 9.99783C14.5004 10.5845 14.4264 11.2537 13.9376 11.6994C14.4666 11.5021 15.0769 11.5414 15.5532 11.1886C16.054 10.8179 16.518 10.2326 16.6134 9.57177ZM16.9901 7.7508C16.9393 8.54379 16.1925 8.96738 15.8364 9.61924C15.7604 9.75846 15.6821 9.90218 15.5717 10.0146C15.5889 9.9302 15.6504 9.85538 15.6842 9.77254C15.7984 9.49285 15.8501 9.16919 15.8216 8.83636C15.7869 8.43143 15.6375 8.05539 15.6948 7.62939C15.3879 8.37834 15.4869 9.31465 15.3096 10.1244C15.2703 10.3036 15.1738 10.4604 15.1144 10.6301C15.4159 10.3707 15.8111 10.1405 16.1421 9.84553C16.4622 9.56027 16.7401 9.22593 16.8845 8.79086C16.9886 8.47738 17.0157 8.10346 16.9901 7.7508ZM16.9693 6.2897C16.9332 6.11271 16.9057 5.92953 16.8376 5.76719C16.9665 6.51524 16.5263 7.0556 16.376 7.70279C16.3194 7.94667 16.3 8.2058 16.2128 8.4334C16.2046 8.43832 16.1976 8.42876 16.1926 8.4214C16.4097 7.73263 16.0914 7.09608 15.7812 6.55317C15.6997 6.41046 15.6605 6.24429 15.6224 6.07629C15.5889 6.3881 15.6476 6.74904 15.6986 7.07078C15.7643 7.48501 15.8895 7.87325 15.989 8.2729C16.0546 8.52258 16.0373 8.80437 16.0037 9.06595L16.0353 9.03744C16.2662 8.55553 16.7218 8.17905 16.8594 7.65307C16.9693 7.23269 17.0454 6.74704 16.9693 6.2897ZM16.7257 5.48502C16.7257 4.91894 16.5308 4.45716 16.2383 4.03557C16.2298 4.03079 16.2238 4.02117 16.2128 4.0234C16.5348 4.57709 16.2417 5.27597 16.2831 5.90395L16.3256 6.54847C16.3193 6.55317 16.3193 6.57252 16.3043 6.5651C16.2853 6.49325 16.2795 6.41681 16.2684 6.3426C16.1909 5.82302 15.7874 5.46135 15.4451 5.09453C15.3668 5.01073 15.3059 4.9084 15.2667 4.79486C15.2951 5.0537 15.359 5.31903 15.4618 5.55425C15.7252 6.15722 16.234 6.64395 16.3256 7.32918C16.3699 6.67246 16.7257 6.18425 16.7257 5.48502ZM15.8771 3.57547C15.7152 3.37253 15.5337 3.21444 15.3177 3.15194C15.7372 3.478 15.7144 4.06078 15.8428 4.54805C15.8898 4.72622 15.9588 4.89315 15.9955 5.07729L15.9849 5.08685C15.9151 4.87869 15.7954 4.67859 15.6394 4.51218C15.3443 4.19751 14.9008 4.00703 14.7548 3.54673C14.7614 4.18639 15.2438 4.67265 15.6843 5.0488C15.8819 5.21756 16.0497 5.44408 16.1522 5.68156C16.1351 5.50482 16.1273 5.35777 16.1413 5.18525C16.1865 4.62646 16.2158 4.00005 15.8771 3.57547ZM14.1745 2.5C14.4858 2.80882 14.6935 3.20633 14.9327 3.56365C15.1316 3.86085 15.4045 4.04499 15.6393 4.29438C15.5126 3.99721 15.4892 3.65669 15.3283 3.3692C15.0531 2.87758 14.5984 2.68677 14.1745 2.5Z" fill="white"/>
<path d="M15.0091 9.03552L14.9059 8.98352C14.688 9.39805 14.3992 9.77747 14.0506 10.1072L13.4476 9.55053C13.743 9.26953 13.9812 8.95056 14.1567 8.60583L14.054 8.55396C13.8814 8.894 13.6488 9.20519 13.3656 9.47481L12.8193 8.97056C13.0505 8.74902 13.2383 8.4921 13.3742 8.21127L13.2723 8.15993C13.1416 8.43182 12.9607 8.68064 12.7376 8.89527L12.1339 8.33801C12.2995 8.1763 12.4304 7.98707 12.5196 7.78035L12.4176 7.72901C12.334 7.92684 12.2101 8.10807 12.0527 8.26293L11.5047 7.75722C11.6603 7.5976 11.7518 7.39357 11.7641 7.17917H12.5397C12.5333 7.36754 12.4921 7.55351 12.4176 7.72901L12.5196 7.78035C12.6021 7.58874 12.6476 7.38525 12.6539 7.17914H13.5089C13.5016 7.51735 13.4211 7.85081 13.2723 8.15993L13.3742 8.21127C13.5297 7.88991 13.6156 7.54066 13.6232 7.17909H14.3973C14.3897 7.65466 14.2727 8.12331 14.0539 8.55393L14.1567 8.6058C14.3814 8.16429 14.5036 7.68036 14.5116 7.17911H15.3666C15.358 7.82497 15.1932 8.43652 14.9059 8.98352L15.0091 9.03547C15.3182 8.4478 15.4823 7.79884 15.4823 7.12634C15.4823 6.55445 15.3636 5.99963 15.1381 5.48492L15.0321 5.52697C15.2445 6.01268 15.3597 6.53501 15.3668 7.0736H14.5117C14.5048 6.64393 14.4133 6.22727 14.246 5.83887L14.1409 5.88047C14.3023 6.25595 14.3906 6.65848 14.3974 7.0736H13.6232C13.6169 6.76187 13.5512 6.45359 13.4291 6.16289L13.324 6.20459C13.4401 6.48209 13.5027 6.77618 13.5091 7.0736H12.654C12.6482 6.88329 12.6091 6.69511 12.5381 6.51634L12.433 6.55798C12.498 6.72353 12.5341 6.89758 12.5398 7.0736H11.7642C11.7519 6.85919 11.6604 6.65516 11.5048 6.49554L12.0533 5.98933C12.2227 6.15559 12.3508 6.34867 12.4331 6.55801L12.5382 6.51636C12.4501 6.29497 12.3138 6.09071 12.134 5.91475L12.7386 5.35672C12.9966 5.6046 13.1935 5.89239 13.324 6.20459L13.4291 6.16289C13.2929 5.83861 13.0878 5.53961 12.8194 5.28215L13.3668 4.77673C13.7058 5.0995 13.9663 5.47401 14.1409 5.88049L14.246 5.83887C14.0657 5.42025 13.797 5.03457 13.4476 4.70229L14.0521 4.14418C14.4797 4.54846 14.8094 5.01757 15.0321 5.52699L15.138 5.48495C14.9027 4.94743 14.551 4.45372 14.0934 4.03144C13.6343 3.60756 13.0971 3.28208 12.5122 3.06483L12.4701 3.16381C13.0232 3.36946 13.5325 3.67422 13.9713 4.0696L13.3668 4.62768C13.0129 4.3111 12.6029 4.0657 12.1578 3.89944L12.1161 3.9976C12.5465 4.15879 12.9432 4.39614 13.286 4.70311L12.7386 5.20842C12.4725 4.9721 12.1657 4.7886 11.833 4.66298L11.7912 4.76112C12.1095 4.88151 12.4031 5.05711 12.6579 5.283L12.0534 5.841C11.8833 5.69307 11.6889 5.57695 11.4788 5.49597L11.437 5.59419C11.6349 5.6709 11.8163 5.77977 11.9726 5.91563L11.4242 6.42184C11.2499 6.27773 11.0314 6.1942 10.7978 6.18244V5.46655C11.0175 5.47255 11.2342 5.51582 11.437 5.59421L11.4788 5.49597C11.2652 5.41361 11.0352 5.36748 10.7978 5.36105V4.5718C11.144 4.57823 11.4794 4.64317 11.7913 4.76114L11.833 4.66298C11.5081 4.54028 11.1585 4.47282 10.7978 4.46639V3.75143C11.2569 3.75791 11.702 3.84242 12.116 3.99736L12.1577 3.8992C11.7306 3.73948 11.2715 3.65247 10.7978 3.64599V2.85666C11.3801 2.86319 11.9449 2.96914 12.4702 3.16434L12.5123 3.06536C11.9566 2.85881 11.3578 2.75 10.7407 2.75C9.97841 2.75 9.25813 2.91788 8.61938 3.21417L8.67149 3.30622C9.28957 3.02034 9.97343 2.8646 10.6836 2.85669V3.64602C10.1229 3.65341 9.57112 3.77692 9.069 4.00743L9.12094 4.09922C9.60181 3.87949 10.1326 3.7591 10.6836 3.75135V4.46605C10.2663 4.47333 9.85571 4.5647 9.48065 4.73379L9.53287 4.826C9.88795 4.66691 10.2784 4.579 10.6836 4.57146V5.36076C10.4227 5.3677 10.1662 5.42412 9.92992 5.52649L9.98243 5.61907C10.2001 5.52569 10.4376 5.47318 10.6836 5.46615V6.18217C10.5663 6.18813 10.451 6.21272 10.3428 6.25487L10.3952 6.34737C10.5049 6.306 10.6223 6.2848 10.7408 6.28496C10.9843 6.28496 11.2133 6.37252 11.3856 6.5315C11.5579 6.69051 11.6527 6.902 11.6527 7.12687C11.6527 7.59107 11.2437 7.96884 10.7407 7.96884C10.4971 7.96884 10.268 7.88125 10.0957 7.72224C9.92348 7.56315 9.82862 7.35175 9.82862 7.12687C9.82862 6.90197 9.92348 6.69051 10.0957 6.5315C10.1813 6.45237 10.2831 6.38977 10.3952 6.34737L10.3427 6.25484C10.2384 6.29555 10.142 6.35196 10.0576 6.42176L9.50893 5.91526C9.6486 5.79382 9.80844 5.69381 9.98237 5.61905L9.92987 5.52646C9.7458 5.60623 9.57662 5.71248 9.42866 5.84124L8.82352 5.28263C9.0326 5.09707 9.27196 4.94297 9.53284 4.82597L9.48062 4.73376C9.2097 4.85577 8.96107 5.01608 8.74374 5.2089L8.19534 4.70274C8.468 4.45838 8.78026 4.25475 9.12088 4.09919L9.06895 4.0074C8.71832 4.16802 8.39676 4.37782 8.11573 4.62933L7.50996 4.07013C7.85206 3.76166 8.24387 3.50397 8.67143 3.30622L8.61935 3.21417C7.69612 3.64243 6.94453 4.34034 6.48683 5.19591L6.58618 5.24539C6.80235 4.83963 7.08689 4.4681 7.4292 4.14466L8.03502 4.70388C7.75155 4.97335 7.51701 5.28325 7.34044 5.62165L7.43941 5.67097C7.6083 5.34528 7.83474 5.04362 8.11449 4.77732L8.66292 5.2835C8.44056 5.49709 8.25824 5.74335 8.12344 6.01217L8.22262 6.06157C8.35198 5.80151 8.52782 5.5634 8.74279 5.3572L9.34792 5.91581C9.19204 6.06839 9.06673 6.2453 8.97783 6.43831L9.07781 6.48824C9.16104 6.30395 9.2797 6.13508 9.42805 5.98978L9.97674 6.49626C9.82611 6.65168 9.73048 6.8526 9.71721 7.07405H8.94146C8.94797 6.87274 8.99418 6.6742 9.07781 6.48819L8.9778 6.43825C8.88515 6.63968 8.83409 6.85531 8.82723 7.07405H7.97227C7.97998 6.71888 8.06627 6.37592 8.22259 6.06152L8.12338 6.01212C7.95603 6.34526 7.8657 6.70693 7.85816 7.07407H7.08382C7.09196 6.5805 7.21462 6.10436 7.43938 5.67092L7.34044 5.6216C7.11043 6.06247 6.97817 6.55458 6.96977 7.07407H6.11463C6.12303 6.42946 6.28623 5.80833 6.58612 5.24536L6.48677 5.19588C6.17502 5.77874 5.99902 6.43403 5.99902 7.12682C5.99902 7.55059 6.0646 7.96475 6.18984 8.36042L6.30182 8.3344C6.18262 7.95914 6.11963 7.57059 6.11463 7.17956H6.96962C6.97457 7.50565 7.02902 7.82948 7.13138 8.14161L7.24224 8.11584C7.14309 7.81578 7.08917 7.50135 7.08382 7.17956H7.85802C7.8634 7.43808 7.90946 7.6945 7.99474 7.94079L8.1058 7.91493C8.02265 7.67714 7.97767 7.42939 7.9723 7.17956H8.82726C8.83298 7.36447 8.87011 7.54741 8.93729 7.72168L9.0484 7.69579C8.98333 7.53005 8.94723 7.3558 8.94146 7.17959H9.71712C9.7294 7.39399 9.82094 7.59802 9.97648 7.75764L9.42805 8.26391C9.25887 8.0977 9.13078 7.90486 9.04838 7.69582L8.93729 7.72168C9.02504 7.94887 9.16335 8.1585 9.34726 8.33843L8.74276 8.89649C8.44871 8.6139 8.23349 8.279 8.10603 7.91514L7.99497 7.94101C8.12732 8.32308 8.35301 8.67456 8.66223 8.97122L8.11472 9.47664C7.7053 9.08692 7.40958 8.622 7.2425 8.11598L7.13164 8.14177C7.30381 8.66596 7.60974 9.14774 8.03393 9.55116L7.4294 10.1092C6.89435 9.60317 6.5122 8.99579 6.30211 8.33458L6.1901 8.36061C6.41049 9.05672 6.81704 9.69485 7.38811 10.2219C7.77484 10.5789 8.21686 10.8663 8.69609 11.0781L8.75283 10.9852C8.2993 10.7857 7.87977 10.5168 7.51016 10.1837L8.11466 9.62574C8.4239 9.9032 8.78238 10.1297 9.17454 10.2953L9.23094 10.2029C8.85238 10.0443 8.50228 9.8257 8.19554 9.55122L8.74299 9.04586C8.99958 9.27373 9.29418 9.45234 9.6132 9.57746L9.66959 9.48524C9.35972 9.3652 9.07315 9.19257 8.82398 8.9716L9.42854 8.41354C9.62281 8.58272 9.84896 8.71012 10.0941 8.79121L10.1513 8.6978C9.91227 8.62136 9.6935 8.49907 9.50936 8.33899L10.0578 7.83273C10.232 7.97694 10.4504 8.06042 10.684 8.07223V8.78823C10.5025 8.78308 10.3229 8.7526 10.1513 8.69783L10.0941 8.79124C10.2837 8.85385 10.4828 8.88841 10.684 8.89365V9.68279C10.3302 9.67626 9.98744 9.60864 9.66982 9.48564L9.61346 9.57786C9.9484 9.70927 10.3102 9.78162 10.684 9.78828V10.503C10.1746 10.4957 9.68257 10.3923 9.23119 10.2033L9.1748 10.2956C9.64335 10.4933 10.1547 10.6011 10.684 10.6084V11.3975C10.005 11.39 9.34959 11.2479 8.75312 10.9856L8.69635 11.0785C9.32675 11.357 10.0216 11.5042 10.7412 11.5042C11.496 11.5042 12.2232 11.3414 12.8777 11.0358L12.8237 10.939C12.2133 11.2244 11.5261 11.3893 10.7982 11.3976V10.6084C11.3753 10.6005 11.9309 10.4728 12.4329 10.2398L12.3795 10.1443C11.8886 10.3728 11.3479 10.4954 10.7982 10.5029V9.78823C11.2312 9.78053 11.648 9.68465 12.0255 9.51079L11.9725 9.41577C11.6074 9.58409 11.2062 9.6753 10.7982 9.68276V8.89362C11.074 8.88618 11.3395 8.82491 11.5811 8.71573L11.5284 8.62126C11.3006 8.72402 11.0517 8.78091 10.7982 8.78816V8.07223C11.0305 8.06091 11.2516 7.97637 11.4245 7.83273L11.9724 8.33849C11.8405 8.4527 11.6909 8.54802 11.5284 8.62126L11.5811 8.71573C11.7542 8.63752 11.9135 8.53566 12.0537 8.41357L12.6573 8.97075C12.4547 9.15021 12.2238 9.30025 11.9725 9.41577L12.0255 9.51079C12.2875 9.39025 12.5281 9.2336 12.7391 9.04623L13.2853 9.55042C13.0178 9.78968 12.7123 9.98993 12.3795 10.1443L12.4329 10.2398C12.7764 10.0804 13.0915 9.87346 13.3673 9.62614L13.9703 10.1828C13.6339 10.4859 13.2471 10.7412 12.8237 10.939L12.8777 11.0358C13.3273 10.8258 13.7378 10.5512 14.0939 10.2223C14.4744 9.87117 14.7813 9.4705 15.0096 9.03653L15.0091 9.03552Z" fill="white"/>
<path d="M10.983 6.11272L10.9843 6.14441L11.0132 6.14313L11.0116 6.11166L10.983 6.11272ZM10.941 6.06954H10.9792V6.09642H10.941V6.06954ZM10.9057 6.06479L10.9097 6.0382L10.8761 6.03377L10.8721 6.06014L10.9057 6.06479ZM10.8437 6.05113L10.8104 6.04667L10.8144 6.02001L10.8478 6.02447L10.8437 6.05113ZM10.5681 6.01562H10.6063V6.04253H10.5681V6.01562ZM10.5181 6.07366L10.5222 6.04704L10.4888 6.04261L10.4848 6.06922L10.5181 6.07366ZM10.4882 6.1098L10.4499 6.10083L10.4569 6.07475L10.4952 6.08375L10.4882 6.1098ZM10.4197 6.14292L10.415 6.11602L10.4433 6.11164L10.4481 6.13851L10.4197 6.14292ZM6.66528 8.95046H6.69414L6.68916 8.88332L6.65086 8.86977V8.84741H6.62698V8.89219H6.66528V8.95046ZM6.96192 9.14747L6.9953 9.17007L7.02887 9.23724L7.00971 9.26847L6.9572 9.22372L6.91888 9.17451L6.89971 9.13419L6.86611 9.05351L6.93781 9.08477L6.96192 9.14747ZM8.10026 10.4918L8.06665 10.5098L8.04752 10.4829L7.99973 10.4694L7.99498 10.4291L7.95666 10.3752L8.01414 10.3843L8.07615 10.4335L8.10026 10.4918ZM10.5921 6.40094H10.5395L10.5299 6.30241L10.5586 6.2844V6.23513H10.3911L10.3864 6.18589L10.4104 6.17243L10.3721 6.15899L10.3434 6.19479L10.3339 6.23513L10.286 6.24414V6.2665H10.2526V6.32472L10.1186 6.42777L9.85078 6.41887C9.83156 6.45916 9.78374 6.41435 9.78374 6.41435C9.77425 6.38748 9.70729 6.41435 9.70729 6.41435C9.70729 6.46367 9.61643 6.39196 9.61643 6.39196L9.44898 6.27991C9.35334 6.19928 9.20988 6.30235 9.20511 6.32472C9.20988 6.38748 9.09511 6.33818 9.09511 6.33818C9.09511 6.33818 8.99947 6.31133 8.98509 6.34719C8.97079 6.38299 8.9085 6.37409 8.9085 6.37409L8.89891 6.39199L8.85107 6.40094L8.84157 6.42779L8.78414 6.43682L8.9276 6.43231C8.96587 6.42782 8.91321 6.5085 8.88933 6.50402L8.82247 6.5085L8.79847 6.53087H8.73632L8.70764 6.56677L8.6168 6.56226C8.6168 6.56226 8.56415 6.6026 8.56899 6.61601C8.57376 6.62948 8.5594 6.66982 8.54502 6.66982C8.53066 6.66982 8.50197 6.71011 8.51156 6.72355C8.52117 6.73702 8.48287 6.78182 8.48287 6.78182L8.47335 6.82668L8.44466 6.83558V6.95658L8.38723 6.99243V7.04619L8.30109 7.13134L8.3107 7.20299L8.239 7.2747L8.24849 7.34641L8.20545 7.35985L8.19595 7.39119L8.17682 7.48526L8.22464 7.48977C8.24849 7.4808 8.24374 7.54804 8.22464 7.55697C8.20545 7.56594 8.15283 7.58382 8.1816 7.60172C8.21031 7.61973 8.10506 7.61521 8.10506 7.58831C8.10506 7.56148 8.04763 7.53904 8.03334 7.54802C8.01895 7.55694 7.99501 7.5077 7.99501 7.5077C7.94242 7.45844 7.7798 7.51216 7.7798 7.51216L7.7558 7.58385C7.70326 7.59285 7.66977 7.67348 7.66977 7.67348C7.62673 7.68695 7.59327 7.73616 7.60762 7.74963C7.62195 7.76309 7.58366 7.76755 7.58366 7.76755V7.86617L7.55977 7.89751L7.56449 8.00502C7.59327 8.00502 7.58849 8.05436 7.58849 8.05436C7.54064 8.05882 7.55014 8.11709 7.55014 8.11709L7.44975 8.14843L7.43065 8.17531L7.30629 8.1708L7.27283 8.20219L7.23925 8.1708H7.00013L6.99063 8.14841L6.94279 8.13938L6.93795 8.09016L6.86625 8.0946L6.85192 8.1215L6.77536 8.12594C6.78014 8.17077 6.69883 8.23802 6.68933 8.22014C6.67964 8.20219 6.62707 8.15284 6.65104 8.14397C6.67498 8.13494 6.73718 8.12594 6.73718 8.12594V8.0946L6.56015 8.09016L6.54107 8.11707L6.46926 8.1215V8.19321L6.43582 8.20219C6.41186 8.21557 6.44054 8.26492 6.44054 8.26492C6.47403 8.29626 6.43582 8.3455 6.43582 8.3455C6.40705 8.3724 6.45967 8.42175 6.45967 8.42175C6.49797 8.43065 6.43579 8.45755 6.43579 8.45755C6.44529 8.50233 6.47406 8.5158 6.47406 8.5158C6.44529 8.56057 6.49325 8.58294 6.49325 8.58294L6.49797 8.65921L6.53146 8.67714V8.72633L6.55057 8.75772H6.6271L6.62232 8.64572C6.55534 8.57401 6.67967 8.55609 6.68453 8.58291C6.68936 8.60981 6.74196 8.62328 6.74196 8.62328C6.75154 8.69053 6.83288 8.73079 6.8567 8.66365C6.88064 8.59635 6.89977 8.63675 6.91413 8.66806C6.92849 8.69948 7.01923 8.77565 7.01923 8.77565H7.09105L7.10066 8.83841C7.18194 8.83389 7.20579 8.84297 7.23928 8.94592C7.27283 9.04891 7.36366 9.07582 7.36366 9.07582L7.43065 9.07135C7.43065 9.01765 7.49763 9.08038 7.49763 9.10731C7.49763 9.13409 7.62673 9.23716 7.62673 9.23716L7.75583 9.26399L7.87552 9.35373L7.96632 9.34475H8.00465C8.0285 9.2685 8.14333 9.34916 8.15283 9.37609C8.16249 9.40297 8.239 9.4478 8.24846 9.42533C8.2581 9.40297 8.3107 9.41643 8.32028 9.48357C8.32983 9.55087 8.36326 9.53741 8.36326 9.53741L8.63594 9.53292L8.73158 9.45667L8.97556 9.45226C9.09986 9.44777 9.02332 9.29092 8.9995 9.29092C8.95643 9.25958 9.0138 9.12965 9.0138 9.12965L8.66465 8.82946C8.58334 8.82946 8.65507 8.72187 8.65507 8.72187C8.71722 8.68598 8.64069 8.62785 8.64069 8.62785C8.6503 8.57399 8.60719 8.51125 8.60719 8.51125C8.52117 8.4575 8.54505 8.3544 8.54505 8.3544V8.28269C8.47335 8.22001 8.57376 8.21098 8.57376 8.21098C8.60719 8.15733 8.54979 8.11696 8.54979 8.11696L8.54505 8.05869L8.46851 8.04969L8.45902 7.83908L8.28682 7.61064C8.25327 7.60161 8.27721 7.54789 8.27721 7.54789C8.32025 7.52547 8.26757 7.47177 8.26757 7.47177L8.26282 7.37315L8.36324 7.36412L8.38717 7.32835H8.43499L8.43025 7.21184C8.45413 7.15359 8.5115 7.18493 8.5115 7.18493L8.57845 7.18945L8.61678 7.1222L8.62627 7.06842L8.5737 7.06398C8.5163 7.03259 8.54499 6.91613 8.54499 6.91613C8.63588 6.79061 8.74104 6.86232 8.74104 6.86232L8.80808 6.85789C8.90847 6.92057 8.81757 7.03708 8.81757 7.03708C8.79844 7.06398 8.80808 7.1491 8.80808 7.1491L8.83196 7.29244L8.76976 7.34179C8.71719 7.36869 8.71719 7.4314 8.77459 7.44484C8.81283 7.44927 8.79847 7.53445 8.74104 7.47618C8.65501 7.47618 8.78898 7.54789 8.75068 7.52988C8.8368 7.57025 8.81757 7.49408 8.81757 7.49408L8.93246 7.40893C8.97553 7.37759 9.05207 7.47618 9.05207 7.48964C9.05207 7.50305 9.24335 7.49405 9.24335 7.49405C9.29594 7.52542 9.31505 7.60613 9.31505 7.60613C9.36773 7.54332 9.47769 7.60156 9.39641 7.63747C9.47286 7.68227 9.47286 7.72256 9.47286 7.72256C9.53512 7.70466 9.53512 7.74947 9.53512 7.76293C9.53512 7.77637 9.55423 7.69574 9.55423 7.69574C9.4825 7.64642 9.64987 7.62849 9.6021 7.71813L9.57333 7.7585L9.62121 7.7943L9.62593 7.8974C9.7312 7.88837 9.70249 7.76739 9.70249 7.76739L9.75031 7.75847C9.75031 7.7181 9.78374 7.74052 9.78374 7.74052C9.75031 7.58815 9.86033 7.56132 9.86033 7.56132C9.92248 7.54788 9.92726 7.42683 9.92726 7.42683C9.88427 7.40893 9.9081 7.34622 9.95597 7.40003C10.0037 7.45371 9.92726 7.29242 9.92726 7.29242L9.88899 7.26108L9.83642 7.25661L9.83159 7.20732H9.74556L9.73118 7.27008L9.69774 7.27903L9.6881 7.26108L9.6738 7.31037H9.58772L9.58297 7.25661L9.63557 7.24318L9.6547 7.2163L9.669 7.14459H9.73123L9.81251 7.1222C9.81723 7.04603 9.86033 7.06398 9.86033 7.06398L9.88902 7.08635L9.93206 7.11771L9.93687 7.14454L9.90812 7.15797L9.9034 7.19388L9.91776 7.24315H9.95597C9.97033 7.17144 10.0708 7.17144 10.0995 7.21627L10.1282 7.15354C10.0613 7.1222 10.127 7.07285 10.1461 7.0953C10.1652 7.11771 10.2095 7.03705 10.2095 7.03705C10.2095 7.03705 10.243 7.07737 10.2095 7.02359C10.176 6.9698 10.2334 6.94295 10.2334 6.94295C10.2239 6.8892 10.2956 6.89815 10.2956 6.89815L10.3004 6.82649L10.2334 6.82195C10.2191 6.88468 10.1617 6.83096 10.1904 6.81752C10.2191 6.80405 10.2477 6.77715 10.2477 6.77715V6.73234L10.2765 6.72339L10.2812 6.67859H10.353L10.4151 6.65171L10.4295 6.62929L10.4965 6.62483L10.5921 6.54415L10.5826 6.50834C10.5252 6.50834 10.5826 6.46798 10.5826 6.46798L10.5921 6.40094Z" fill="white"/>
<path d="M8.66458 7.2902L8.57847 7.28125L8.5833 7.31259H8.60718C8.64539 7.37535 8.61196 7.52766 8.61196 7.52766C8.61196 7.52766 8.55462 7.5321 8.54501 7.50527C8.53551 7.4784 8.51152 7.56354 8.53062 7.57698C8.54975 7.59037 8.61676 7.57698 8.62154 7.6263C8.62626 7.67554 8.66458 7.59491 8.66458 7.59491V7.2902Z" fill="white"/>
<path d="M8.68337 7.78972L8.69307 7.74938L8.65949 7.7361L8.66421 7.66891L8.69307 7.66428L8.69782 7.63281L8.62589 7.6778L8.57812 7.65098V7.75846L8.65475 7.85243L8.68337 7.78972ZM8.70254 7.90629L8.66916 7.91072L8.66421 7.94663L8.70254 7.95107V7.90629ZM8.65949 8.13478L8.61892 8.13921V8.17068L8.65949 8.16625V8.13478ZM8.71589 8.02838C8.72711 8.02838 8.73611 8.01991 8.73611 8.00944C8.73615 8.00697 8.73565 8.00451 8.73465 8.0022C8.73365 7.9999 8.73217 7.99781 8.73029 7.99604C8.72841 7.99427 8.72617 7.99286 8.7237 7.99189C8.72123 7.99093 8.71857 7.99042 8.71589 7.9904C8.7132 7.99042 8.71054 7.99092 8.70807 7.99189C8.70559 7.99286 8.70335 7.99427 8.70146 7.99604C8.69958 7.99781 8.69809 7.9999 8.69709 8.0022C8.69608 8.0045 8.69558 8.00696 8.6956 8.00944C8.6956 8.01991 8.70469 8.02838 8.71589 8.02838Z" fill="white"/>
<path d="M8.74894 8.12365C8.76022 8.12365 8.76937 8.11521 8.76937 8.10479C8.76937 8.09438 8.76022 8.08594 8.74894 8.08594C8.73766 8.08594 8.72852 8.09438 8.72852 8.10479C8.72852 8.11521 8.73766 8.12365 8.74894 8.12365Z" fill="white"/>
<path d="M8.75529 7.61584C8.76657 7.61584 8.77572 7.6074 8.77572 7.59698C8.77572 7.58657 8.76657 7.57812 8.75529 7.57812C8.74401 7.57812 8.73486 7.58657 8.73486 7.59698C8.73486 7.6074 8.74401 7.61584 8.75529 7.61584Z" fill="white"/>
<path d="M10.4125 7.04743V6.96234H10.3839L10.3792 6.93086L10.3264 6.92643L10.3169 6.94882H10.2931L10.2881 6.98472H10.317L10.3217 7.01155L10.3026 7.02948L10.2931 7.05187L10.2548 7.06095L10.1686 7.13717L10.1639 7.17287L10.14 7.20434L10.1114 7.27148L10.0109 7.27592L9.9917 7.3566L10.0059 7.42374L10.092 7.45522L10.1017 7.41044L10.1303 7.39692L10.1353 7.35217L10.1542 7.3207L10.1831 7.28944L10.1926 7.25353L10.2403 7.2267L10.2978 7.21765L10.3217 7.19082L10.3314 7.13717L10.3348 7.09686L10.3553 7.06982L10.4125 7.04743ZM10.5129 7.23573V7.173L10.5033 7.11473L10.4316 7.08339L10.379 7.1282L10.3694 7.19095V7.23124L10.3216 7.24022L10.312 7.3612L10.2738 7.37466L10.2786 7.41947L10.1734 7.44634L10.1638 7.50459L10.1256 7.52698L10.1063 7.58076L10.0824 7.71071C10.0824 7.71071 10.1255 7.78688 10.1494 7.75103C10.1734 7.7152 10.2116 7.71071 10.2116 7.71071L10.226 7.67932L10.3551 7.68381C10.3647 7.63446 10.4268 7.65247 10.4268 7.67486C10.4268 7.69725 10.4747 7.67929 10.4747 7.67929L10.5081 7.63003H10.5607L10.5655 7.5763L10.5894 7.56283V7.48215C10.666 7.45976 10.6564 7.39256 10.6564 7.39256L10.6756 7.37017L10.666 7.33883C10.6277 7.32537 10.6468 7.29395 10.6707 7.30293C10.6947 7.31188 10.6373 7.26258 10.6373 7.26258C10.6086 7.28505 10.5847 7.23573 10.5847 7.23573H10.5129ZM10.5894 7.7778C10.5847 7.83155 10.5129 7.84951 10.5129 7.84951L10.4603 7.83607L10.4316 7.81365L10.4268 7.7509L10.4698 7.74646L10.4794 7.77336L10.5894 7.7778ZM10.8478 7.49123C10.8582 7.5303 10.8573 7.42842 10.8764 7.43296C10.8955 7.43742 10.8813 7.37028 10.8813 7.37028L10.7952 7.42844C10.8382 7.43296 10.8429 7.47333 10.8478 7.49123ZM11.1013 7.25804C11.1204 7.29841 11.1157 7.35666 11.1873 7.40146C11.2115 7.41657 11.173 7.44629 11.149 7.4328C11.1251 7.41939 11.0583 7.32075 11.0583 7.32075V7.26253C11.0726 7.2267 11.093 7.24067 11.1013 7.25804ZM11.1634 8.60673L11.1348 8.59764L11.1014 8.62022L11.1156 8.63355L11.1298 8.65594L11.1634 8.60673ZM10.9816 8.54854V8.60245V8.54854ZM11.7116 8.46124L11.6963 8.43864L11.6582 8.46081L11.6733 8.48363L11.7116 8.46124ZM13.0575 9.41781L13.1006 9.43568L13.1053 9.51185C13.1628 9.56561 13.3493 9.52083 13.3493 9.50736C13.3493 9.4939 13.3397 9.34161 13.3397 9.34161L13.3157 9.31917L13.311 9.20709C13.3301 9.14885 13.2201 9.06367 13.2105 9.08173C13.201 9.09958 13.1388 9.08609 13.1388 9.10407C13.1388 9.12194 13.1006 9.21158 13.1197 9.24297C13.1388 9.27436 13.1053 9.27436 13.1006 9.3057C13.0958 9.33704 13.0479 9.3909 13.0575 9.41781ZM12.9522 9.23854C12.9431 9.27248 12.9092 9.29229 12.8901 9.27883C12.8709 9.26536 12.9139 9.30119 12.9235 9.3192C12.9331 9.33707 12.9618 9.33707 12.9714 9.3192C12.9809 9.30116 12.9761 9.26095 12.9858 9.24302C12.9953 9.22507 12.957 9.22061 12.9522 9.23851V9.23854ZM12.7298 8.41654H12.7632V8.50171H12.7298V8.41654ZM13.225 7.55391C13.2041 7.5278 13.3206 7.4822 13.3397 7.53601C13.3588 7.58971 13.3397 7.58081 13.3206 7.57632C13.3014 7.57181 13.2537 7.58974 13.225 7.55391ZM13.3228 6.98008L13.3754 6.98895L13.3805 6.96255L13.3278 6.95368L13.3228 6.98008ZM13.1939 6.99992L13.1583 7.01851L13.1272 7.00034L13.1121 7.02292L13.1504 7.04533L13.1576 7.04956L13.1648 7.04573L13.1937 7.03075L13.1973 7.03898L13.2239 7.02905L13.2142 7.00669L13.2081 6.99253L13.1939 6.99992ZM13.3731 5.94072H13.3014C13.3014 5.94072 13.3253 5.94967 13.2584 5.8914C13.1913 5.83319 13.1484 5.90487 13.1484 5.90487L13.0718 5.91382V5.98553L13.0335 5.99894L13.0383 6.04377L13.0909 6.03931C13.0909 6.03931 13.0909 6.09307 13.1053 6.07068C13.1197 6.04826 13.2393 6.07511 13.2297 6.12892C13.2258 6.15102 13.3493 6.20953 13.335 6.28121C13.3971 6.29021 13.3827 6.34848 13.3827 6.34848L13.464 6.35743L13.488 6.31263L13.5119 6.31712V6.29021L13.4592 6.27677L13.4497 6.13335L13.4162 6.11097L13.4257 6.07511L13.3875 6.06165L13.4067 6.00343L13.3731 5.94072ZM13.5835 6.3978L13.5452 6.39337L13.459 6.40681L13.4113 6.49193C13.4113 6.49193 13.4352 6.50536 13.4542 6.53673C13.4734 6.56812 13.483 6.75178 13.4256 6.7832C13.3682 6.81456 13.4304 6.79658 13.4304 6.79658L13.4208 6.89517C13.4352 6.94 13.459 6.91764 13.4734 6.89517C13.4879 6.87286 13.5022 6.86834 13.5213 6.84593C13.5404 6.82349 13.5691 6.7832 13.5739 6.7518C13.5787 6.72046 13.6026 6.6712 13.5882 6.65773C13.5739 6.64429 13.6026 6.58159 13.6026 6.58159C13.6026 6.58159 13.6217 6.54568 13.6026 6.50988C13.5835 6.474 13.6074 6.43366 13.6217 6.41573L13.5835 6.3978ZM13.6413 6.58061L13.6462 6.54475L13.6747 6.54815L13.6698 6.58401L13.6413 6.58061ZM13.6396 6.70442L13.614 6.69239L13.6283 6.66554L13.6539 6.67755L13.6396 6.70442ZM13.5978 6.34867L13.5787 6.3083C13.5787 6.3083 13.5787 6.27252 13.5882 6.25452C13.5978 6.23662 13.5691 6.21874 13.5548 6.21423C13.5404 6.20971 13.5453 6.17391 13.5404 6.15596C13.5357 6.13806 13.5022 6.12462 13.5022 6.12462C13.5022 6.12462 13.4926 6.05742 13.4926 6.04398C13.4926 6.03055 13.4496 6.01265 13.4639 5.99915C13.4783 5.98571 13.4879 5.96781 13.5022 5.95881C13.5166 5.94986 13.4879 5.8871 13.5117 5.90057C13.5357 5.91403 13.5357 5.93642 13.5453 5.95435C13.5548 5.97225 13.5404 6.03501 13.5644 6.04847C13.5883 6.06186 13.5596 6.10664 13.5978 6.10664C13.6361 6.10664 13.6122 6.19184 13.6122 6.19184C13.6122 6.19184 13.6026 6.25452 13.6265 6.25903C13.6504 6.26352 13.6361 6.37106 13.6361 6.37106L13.5978 6.34867ZM13.2871 5.62255C13.3014 5.64045 13.3301 5.65389 13.3301 5.67187C13.3301 5.6898 13.3206 5.70321 13.3493 5.7077C13.3779 5.71216 13.3971 5.70318 13.4067 5.7256C13.4162 5.74799 13.4162 5.78384 13.4115 5.80177C13.4067 5.81972 13.4162 5.84657 13.4401 5.84657C13.4641 5.84657 13.4688 5.85109 13.4688 5.86453C13.4688 5.87794 13.4975 5.81521 13.4975 5.81521C13.4736 5.79731 13.4544 5.75694 13.4544 5.75694C13.4544 5.75694 13.4306 5.69423 13.4306 5.68528C13.4306 5.6763 13.3971 5.66733 13.3828 5.66286C13.3684 5.65835 13.3445 5.61806 13.3445 5.61806L13.2871 5.62257V5.62255ZM13.3349 5.58244C13.3205 5.56446 13.3061 5.55105 13.287 5.54213C13.2679 5.53312 13.2536 5.52417 13.2344 5.52417C13.2153 5.52417 13.1962 5.50622 13.2057 5.48386C13.2153 5.46144 13.1913 5.45249 13.1913 5.43454C13.1913 5.41664 13.2057 5.41664 13.2296 5.43008C13.2536 5.44354 13.2487 5.44798 13.2679 5.47045C13.287 5.49281 13.2965 5.51522 13.3157 5.51074C13.3349 5.50622 13.3492 5.55105 13.3683 5.53761C13.3874 5.52417 13.3827 5.56895 13.3827 5.56895L13.3349 5.58244ZM12.7753 6.08866C12.8016 6.11341 12.6318 6.10653 12.6318 6.08866C12.6318 6.07076 12.6462 6.00805 12.6891 6.02141C12.7322 6.0349 12.7369 5.9408 12.7369 5.9408C12.7369 5.9408 12.6987 5.94524 12.7322 5.92734C12.7657 5.90944 12.7322 5.88253 12.7178 5.86909C12.7035 5.85563 12.6891 5.83324 12.6891 5.83324H12.7562C12.7849 5.81529 12.7944 5.73019 12.7944 5.73019C12.8517 5.74809 12.8804 5.71224 12.8804 5.71224C12.8804 5.71224 12.8901 5.73912 12.9092 5.76158C12.9284 5.78395 12.8613 5.79292 12.8853 5.80639C12.9092 5.81983 12.9187 5.86012 12.9092 5.87353C12.8996 5.88699 12.8469 5.87804 12.8469 5.86012C12.8469 5.84219 12.8278 5.88253 12.8469 5.90495C12.8661 5.92734 12.823 5.95868 12.8135 5.95868C12.8039 5.95868 12.7418 5.96768 12.7944 5.99453C12.8469 6.02141 12.9044 6.00802 12.9044 6.00802C12.9044 6.00802 12.9475 6.00351 12.9618 6.02595C12.9762 6.04834 12.957 6.05283 12.9331 6.05283C12.9092 6.05283 12.7944 6.04382 12.7944 6.04382C12.7944 6.04382 12.7609 6.07522 12.7753 6.08866ZM12.4691 6.12903C12.4931 6.12454 12.5504 6.12002 12.56 6.13349C12.5696 6.1469 12.5265 6.16483 12.5265 6.16483L12.4691 6.1738C12.45 6.15139 12.4452 6.13351 12.4691 6.12903ZM13.0863 5.75269C13.1245 5.73479 13.2058 5.73479 13.2011 5.70788C13.1963 5.681 13.2488 5.67203 13.2488 5.67203L13.2632 5.72578L13.3063 5.75266L13.3111 5.80195C13.3111 5.80195 13.3254 5.793 13.2728 5.80647C13.2202 5.81991 13.2537 5.84227 13.2537 5.84227L13.1389 5.84676L13.1245 5.80193L13.0863 5.75269ZM12.8996 5.51074C12.9286 5.51074 12.8901 5.61378 12.9665 5.60483C13.043 5.59583 12.9714 5.63617 13.0287 5.64066C13.0861 5.64518 13.0718 5.60035 13.0909 5.56901C13.11 5.53764 13.1005 5.51969 13.067 5.51074C13.0334 5.50179 13.0334 5.50179 13.0239 5.46588C13.0144 5.43008 12.9761 5.42107 12.9761 5.42107L12.9617 5.36734L12.8996 5.40317L12.8374 5.47934C12.8374 5.53764 12.8708 5.51074 12.8996 5.51074ZM13.0261 5.88936L13.0405 5.86248L13.0663 5.87454L13.0519 5.90142L13.0261 5.88936ZM12.9761 5.8467H13.0048V5.87807H12.9761V5.8467ZM13.0002 5.24966L13.005 5.28998L12.9765 5.29295L12.9717 5.25269L13.0002 5.24966ZM12.9188 5.66743H12.9475V5.68987H12.9188V5.66743ZM12.8435 5.66698L12.8407 5.64018L12.8885 5.63577L12.8914 5.66255L12.8435 5.66698ZM12.4489 6.0979L12.4226 6.0873L12.437 6.05596L12.4633 6.06653L12.4489 6.0979ZM12.2988 6.01634L12.296 5.98965L12.3439 5.98521L12.3467 6.0119L12.2988 6.01634ZM11.3638 6.01249L11.3651 6.03931L11.4702 6.03487L11.4688 6.00805L11.3638 6.01249ZM11.2933 6.04696L11.2838 6.00667L11.3119 6.00085L11.3214 6.04112L11.2933 6.04696ZM11.2732 6.07471L11.2642 6.04922L11.2785 6.04473L11.2876 6.07025L11.2732 6.07471ZM11.5124 5.99915L11.5077 6.03049L11.5602 6.03501C11.5602 6.03501 11.5841 6.05296 11.5841 6.06635C11.5841 6.07981 11.6177 6.09322 11.6368 6.09322C11.6559 6.09322 11.7085 6.05737 11.7085 6.05737C11.7085 6.05737 11.7324 5.99464 11.7133 5.9991C11.6941 6.00356 11.6559 6.03047 11.6512 6.00356C11.6463 5.97668 11.589 5.99012 11.589 5.99012L11.5124 5.99915ZM11.7515 5.94975C11.7515 5.96317 11.742 5.98109 11.7706 5.98561C11.7995 5.99004 11.8521 5.96771 11.8568 5.99456C11.8617 6.02144 11.8617 6.03942 11.8999 6.05288C11.9381 6.06627 11.9621 6.07078 11.9908 6.07078C12.0194 6.07078 12.0817 6.06175 12.0817 6.06175C12.0817 6.06175 12.1493 6.07153 12.1629 6.08419C12.2155 6.13346 12.249 6.1469 12.2633 6.12451C12.2777 6.1021 12.2586 6.05285 12.2538 6.03493C12.249 6.01695 12.182 5.93183 12.1581 5.94975C12.1342 5.96771 12.1294 5.94975 12.0864 5.96317C12.0433 5.9766 11.9524 5.96768 11.9477 5.94975C11.9429 5.9318 11.876 5.92293 11.876 5.90495C11.876 5.887 11.8282 5.86463 11.8329 5.89148C11.8377 5.91836 11.7995 5.9318 11.7898 5.9229C11.7803 5.91393 11.7515 5.94975 11.7515 5.94975ZM12.8518 5.37608L12.8853 5.27755C12.8375 5.26857 12.847 5.21933 12.847 5.21933C12.8423 5.17896 12.7753 5.13418 12.7514 5.14762C12.7275 5.16104 12.737 5.0535 12.737 5.0535C12.737 5.0535 12.7801 5.02667 12.7992 5.04009C12.8184 5.0535 12.6367 4.81606 12.5983 4.83845C12.5601 4.86087 12.4741 4.81606 12.4788 4.77569C12.4836 4.7354 12.3066 4.60094 12.3066 4.60094C12.3066 4.60094 12.2492 4.56516 12.2397 4.59204C12.2301 4.61889 12.211 4.63684 12.2397 4.65023C12.2683 4.66372 12.2636 4.62787 12.297 4.65918C12.3305 4.69055 12.3927 4.73089 12.3688 4.75779C12.3449 4.78472 12.3161 4.79365 12.3161 4.79365L12.3497 4.8295H12.4023L12.4119 4.90565C12.4119 4.90565 12.4692 4.93255 12.4836 4.96392C12.498 4.99526 12.498 5.01321 12.4836 5.03116C12.4692 5.04906 12.4406 5.08043 12.4454 5.11174C12.4501 5.14311 12.4884 5.15657 12.4884 5.15657L12.5266 5.16109L12.5554 5.17453V5.23282C12.5936 5.22382 12.6557 5.27306 12.651 5.30448C12.6462 5.33582 12.6605 5.31789 12.7083 5.34928C12.7562 5.38062 12.7419 5.38514 12.7753 5.40755C12.8088 5.42986 12.8375 5.41645 12.8518 5.37608Z" fill="white"/>
<path d="M12.0585 4.76988C12.0537 4.75193 12.0441 4.68917 12.0728 4.69366C12.1015 4.69817 12.0824 4.69366 12.1159 4.70712C12.1494 4.72059 12.1541 4.68473 12.1541 4.68473H12.2068L12.2737 4.73397L12.2641 4.77434L12.2163 4.77878C12.1924 4.74298 12.1446 4.75642 12.1541 4.78781C12.1637 4.81915 12.1303 4.87739 12.1112 4.88183C12.092 4.88634 12.0297 4.88634 12.0346 4.85949C12.0394 4.83259 12.0585 4.76988 12.0585 4.76988ZM12.0202 4.64877V4.61294C12.0202 4.61294 12.0153 4.57712 11.9915 4.57712C11.9676 4.57712 11.9246 4.55027 11.9341 4.53231C11.9437 4.51436 11.8528 4.49646 11.8528 4.49646C11.8528 4.49646 11.7715 4.42475 11.8002 4.43378C11.8289 4.4427 11.8146 4.40236 11.8146 4.40236C11.8146 4.40236 11.7571 4.41131 11.7428 4.40687C11.7284 4.40236 11.7332 4.36204 11.7332 4.36204C11.7332 4.36204 11.6759 4.3486 11.6759 4.36204C11.6759 4.37551 11.695 4.37551 11.7045 4.40233C11.7141 4.42921 11.7093 4.47404 11.7524 4.48299C11.7955 4.49197 11.805 4.50089 11.8098 4.51885C11.8146 4.5368 11.8672 4.54124 11.8672 4.54124L11.9055 4.55916L12.0202 4.64877ZM11.4895 4.15595L11.4512 4.14708V4.18744L11.5037 4.19185L11.4895 4.15595ZM11.4894 4.00366C11.4394 3.9686 11.5563 4.03056 11.5563 4.03056C11.5945 4.03056 11.6184 4.05744 11.6184 4.07093C11.6184 4.08434 11.6711 4.07988 11.6711 4.07988L11.6759 4.04846L11.6376 4.00366L11.6041 3.98132C11.6041 3.98132 11.5515 3.97681 11.5515 3.96337C11.5515 3.94996 11.5085 4.01712 11.4894 4.00366ZM12.3692 4.03048C12.3552 4.06968 12.3501 4.12461 12.3262 4.12461C12.3023 4.12461 12.3118 4.1829 12.3118 4.1829C12.3118 4.1829 12.3741 4.1829 12.3932 4.18734C12.4123 4.19177 12.4123 4.23658 12.4123 4.23658C12.4841 4.23214 12.5128 4.32175 12.5032 4.34414C12.4936 4.36653 12.5319 4.36653 12.5319 4.36653C12.5319 4.36653 12.5319 4.43824 12.5222 4.45614C12.5128 4.47409 12.5845 4.48753 12.6036 4.51441C12.6227 4.54131 12.5939 4.6309 12.5797 4.63539C12.5653 4.6399 12.6179 4.65329 12.6131 4.6757C12.6083 4.69814 12.6275 4.6757 12.6322 4.71156C12.637 4.74741 12.6466 4.82356 12.6466 4.82356L12.7135 4.82807C12.7231 4.76985 12.8465 4.7676 12.8666 4.77429C12.9479 4.80117 13.0102 4.91768 13.0102 4.94453C13.0102 4.97141 12.9575 4.97595 12.9575 4.97595L12.9671 5.10582C13.0484 5.12827 13.1153 5.23583 13.1058 5.25376C13.0962 5.27166 13.1631 5.26722 13.1631 5.26722C13.1728 5.18648 13.254 5.21341 13.2588 5.24032C13.2636 5.26722 13.2779 5.32546 13.2779 5.32546L13.3019 5.36573L13.3353 5.39709L13.3879 5.39263L13.4023 5.41954L13.4644 5.42854C13.4644 5.42854 13.5171 5.48224 13.5219 5.49573C13.5267 5.50912 13.5984 5.50468 13.6175 5.50912C13.6366 5.51363 13.6654 5.52707 13.6701 5.54949C13.6749 5.5719 13.7037 5.60773 13.7037 5.60773C13.7037 5.60773 13.761 5.6212 13.7658 5.63907C13.7706 5.65697 13.7945 5.69732 13.7945 5.69732L13.8423 5.73317L13.8471 5.77354L13.8997 5.77803L13.9141 5.83173L14.0001 5.82729L14.048 5.79593C14.1102 5.76459 14.1532 5.72422 14.158 5.70629C14.1627 5.68837 14.1723 5.6212 14.2202 5.63464C14.268 5.64808 14.2346 5.53602 14.2346 5.53602C14.2346 5.53602 14.1676 5.49122 14.1723 5.46878C14.1771 5.44641 14.1054 5.40164 14.1102 5.38368C14.1149 5.36573 14.048 5.32993 14.0527 5.312C14.0575 5.29405 14.0193 5.24475 14.0193 5.24475L13.9475 5.18207L13.9379 5.1417L13.8806 5.13727L13.7658 5.00732L13.7706 4.97144L13.7371 4.96697V4.91771L13.7037 4.89975L13.651 4.89526L13.5458 4.78778L13.5362 4.73846H13.4836L13.4932 4.64434C13.5267 4.60399 13.5075 4.52785 13.5075 4.52785C13.5075 4.52785 13.4405 4.55919 13.4071 4.54575C13.3736 4.53236 13.4214 4.50095 13.4214 4.50095V4.46512L13.3927 4.43824C13.3927 4.43824 13.3114 4.44724 13.3066 4.4338C13.3019 4.42034 13.2875 4.3621 13.2875 4.3621L13.2827 4.28587L13.2493 4.27251L13.2444 4.24558L13.1919 4.25004V4.19629L13.1631 4.18734L13.1345 4.1739L13.1297 4.12009L13.0245 4.11566L12.991 4.07085L12.9528 4.01707L12.8332 4.00812L12.8045 3.98129L12.7567 3.97227L12.7232 3.95883L12.7088 3.98127L12.6179 3.9857L12.6132 4.01261C12.5654 4.035 12.3741 4.01704 12.3692 4.03048ZM12.8716 3.91415C12.864 3.87878 12.9673 3.84696 12.9912 3.87378C13.0151 3.90069 13.0821 3.90523 13.0916 4.03964C13.095 4.08777 13.0055 3.99038 13.0055 3.99038L12.9337 3.96796C12.8955 3.95896 12.8763 3.93662 12.8716 3.91415ZM11.4687 3.96889L11.4426 3.958L11.4618 3.91763L11.4879 3.92855L11.4687 3.96889ZM11.2215 3.52879L11.1592 3.47052V3.42125L11.1401 3.40327L11.121 3.34059L11.0588 3.32266L10.9966 3.34502L10.9297 3.38537L10.858 3.3944L10.8196 3.43466L10.9727 3.44805L11.0014 3.49293L11.1115 3.50188L11.1831 3.56908C11.2454 3.58703 11.2597 3.56012 11.2215 3.52879ZM11.212 3.30914C11.2015 3.26976 11.1402 3.35841 11.2025 3.37628C11.2646 3.39432 11.3267 3.37628 11.3267 3.37628L11.3411 3.34943L11.5802 3.35395C11.5994 3.33599 11.6089 3.30912 11.6089 3.30912C11.6089 3.30912 11.6664 3.29116 11.6902 3.30011C11.7142 3.30914 11.6951 3.23743 11.6711 3.24638C11.6472 3.25534 11.5994 3.25085 11.5994 3.25085H11.5133C11.5085 3.21951 11.432 3.23292 11.4272 3.25085C11.4223 3.26877 11.3938 3.27324 11.3938 3.27324L11.2838 3.28224C11.2742 3.30914 11.2168 3.32704 11.212 3.30914ZM10.7384 4.06527C10.8119 4.08681 10.8388 4.07085 10.8437 4.05295C10.8484 4.03502 10.8532 4.03051 10.8819 4.02607C10.9106 4.02156 10.8771 3.96783 10.8484 3.97229C10.8197 3.97678 10.791 3.96334 10.7863 3.94095C10.7814 3.91856 10.7336 3.86029 10.7288 3.9051C10.724 3.94993 10.6954 3.94993 10.7001 3.98129C10.7049 4.01258 10.7193 4.05962 10.7384 4.06527ZM10.1886 4.11574C10.1851 4.09988 10.2842 4.09784 10.2986 4.11122C10.313 4.12469 10.3033 4.14708 10.3464 4.14708C10.3894 4.14708 10.3703 4.17398 10.3655 4.18744C10.3608 4.20086 10.313 4.19639 10.3081 4.18298C10.3033 4.16952 10.2316 4.16498 10.2316 4.16498C10.2316 4.16498 10.1933 4.13807 10.1886 4.11574ZM11.7754 3.21964L11.7853 3.2121L11.8333 3.17624L11.8152 3.15526L11.7774 3.18355L11.753 3.16071L11.7327 3.1797L11.7661 3.21106L11.7754 3.21964ZM11.5592 3.10092L11.6119 3.06953L11.5966 3.04688L11.5515 3.0737L11.5208 3.0558L11.5058 3.07859L11.5441 3.10095L11.5515 3.10546L11.5592 3.10092ZM11.4104 4.06453L11.4345 4.05016L11.4011 4.00095L11.3973 3.99548L11.3903 3.99484L11.3426 3.99019L11.3396 4.01702L11.3806 4.02081L11.4104 4.06453ZM9.8154 5.24475L9.82029 5.29407H9.89193C9.92068 5.29407 9.86805 5.26271 9.86805 5.26271C9.86805 5.26271 9.81068 5.26722 9.8154 5.24475ZM9.90661 5.24621L9.92493 5.2255L9.95362 5.24781L9.93529 5.26852L9.90661 5.24621ZM9.03516 4.40791L9.0555 4.38889L9.08419 4.4158L9.06384 4.43481L9.03516 4.40791ZM10.4044 10.219L10.4283 10.1966L10.4423 10.1835L10.4244 10.1751L10.3767 10.1527L10.3638 10.1768L10.3938 10.1907L10.3839 10.2L10.4044 10.219ZM10.0415 9.89781L10.0581 9.87603L10.0397 9.8636L10.0541 9.85239L10.0358 9.8317L10.007 9.85409L9.99278 9.86528L10.0079 9.87542L10.0415 9.89781ZM13.6106 9.00238C13.6043 8.97954 13.5764 8.97019 13.5733 8.96923L13.5641 8.99478V8.99462C13.5664 8.99542 13.5697 8.99701 13.5731 8.99903L13.5789 9.02227C13.577 9.02496 13.5748 9.02755 13.5726 9.03003L13.5936 9.04822C13.609 9.03244 13.6146 9.01714 13.6106 9.00238ZM13.6081 8.91457L13.6117 8.87426L13.6583 8.881L13.6547 8.91776L13.6081 8.91457ZM14.7632 8.56841C14.7837 8.55645 14.8099 8.53476 14.8063 8.58524C14.8027 8.63563 14.7812 8.61887 14.7632 8.63563C14.7453 8.65247 14.7346 8.58524 14.7632 8.56841ZM15.0067 8.37824C15.0063 8.37737 15.006 8.37426 15.0058 8.372C15.0052 8.36459 15.0041 8.35453 14.9985 8.34396L14.9728 8.35596C14.976 8.36196 14.9766 8.36831 14.9772 8.37439C14.9779 8.38223 14.9788 8.39121 14.987 8.39689C14.9921 8.4005 14.9986 8.40154 15.0063 8.40016L15.0009 8.37413C15.0031 8.37447 15.006 8.37633 15.0067 8.37824ZM14.9428 8.40029C14.9479 8.41895 14.9541 8.43737 14.9612 8.45548L14.9881 8.44602C14.9879 8.44578 14.9775 8.41952 14.9706 8.3937L14.9428 8.40029ZM14.8383 8.50599L14.8098 8.50334C14.8075 8.52451 14.813 8.55061 14.8356 8.55486L14.8412 8.52852C14.8414 8.52852 14.8417 8.52867 14.8417 8.52867C14.8394 8.52676 14.8373 8.51593 14.8383 8.50599ZM14.7126 7.97136C14.712 7.96724 14.7102 7.96334 14.7075 7.96003C14.7047 7.95673 14.7011 7.95414 14.6969 7.95251C14.6757 7.9439 14.6399 7.95816 14.6224 7.96916L14.6382 7.99152C14.6564 7.98018 14.6802 7.97471 14.6856 7.97721C14.6851 7.97705 14.6844 7.97625 14.6842 7.97575L14.7126 7.97136ZM13.3879 6.53984C13.3688 6.5578 13.3258 6.56675 13.3258 6.56675L13.3114 6.61604L13.2875 6.63394C13.2875 6.63394 13.2923 6.64738 13.2875 6.67874C13.2828 6.71008 13.2397 6.72804 13.2397 6.72804L13.2206 6.75045C13.2206 6.75045 13.1053 6.75622 13.0914 6.75045C13.0484 6.73253 13.0771 6.67874 13.1058 6.68323C13.1345 6.68775 13.101 6.60704 13.101 6.60704L13.1393 6.60257C13.1393 6.60257 13.144 6.52189 13.1584 6.52189C13.1728 6.52189 13.1537 6.49504 13.1344 6.48157C13.1153 6.46819 13.0914 6.42338 13.0722 6.42784C13.0531 6.43228 12.9766 6.42784 12.9766 6.42784L12.9622 6.45475L12.9096 6.46367C12.9096 6.46367 12.9141 6.49833 12.9049 6.5085C12.8761 6.53984 12.7662 6.60704 12.814 6.49506L12.8283 6.46821V6.42784L12.7423 6.42341C12.7423 6.42341 12.6992 6.40994 12.6992 6.39202C12.6992 6.37409 12.6944 6.35173 12.6944 6.35173L12.5939 6.24868L12.4744 6.23524L12.4648 6.2128L12.3932 6.20385C12.307 6.16356 12.2304 6.19936 12.2448 6.26658C12.2592 6.33385 12.283 6.3607 12.2353 6.3607C12.1874 6.3607 12.1779 6.32485 12.1779 6.32485C12.1779 6.32485 12.1397 6.31138 12.1397 6.32931C12.1397 6.34726 12.1253 6.38309 12.1397 6.40102C12.1539 6.41889 12.1204 6.4458 12.1061 6.43236C12.0918 6.41889 12.0535 6.37866 12.0631 6.36519C12.0727 6.35175 11.9961 6.26658 12.0727 6.25317C12.1492 6.2397 12.0679 6.19936 12.0966 6.19046L12.1348 6.17251H12.1731L12.197 6.15455L12.1349 6.14566L12.0966 6.14114L12.0248 6.13668C11.9531 6.18148 11.9388 6.23526 11.9388 6.23526C11.9005 6.30246 11.8097 6.20836 11.8432 6.17253C11.8766 6.13668 11.7379 6.16802 11.714 6.18595C11.69 6.20387 11.6183 6.19492 11.6183 6.19492C11.604 6.23529 11.537 6.19049 11.5561 6.16358C11.5753 6.13668 11.5753 6.11875 11.5753 6.11875L11.5514 6.11426L11.5227 6.16356C11.4558 6.16356 11.4366 6.19936 11.4509 6.2218C11.4652 6.24416 11.4318 6.21731 11.4222 6.24868C11.4127 6.28002 11.427 6.28002 11.4558 6.29348C11.4845 6.30695 11.4414 6.30695 11.4605 6.32931C11.4796 6.35175 11.537 6.32931 11.5036 6.3607C11.4701 6.39204 11.4031 6.37866 11.4031 6.37866C11.3983 6.41889 11.3074 6.41 11.2979 6.39656C11.2883 6.38312 11.2166 6.30243 11.2166 6.30243L11.1256 6.29797C11.1161 6.23529 11.1687 6.26663 11.1879 6.21731C11.2071 6.16802 11.2166 6.08741 11.2166 6.08741C11.2166 6.08741 11.14 6.08292 11.1353 6.10531C11.1305 6.12773 11.0827 6.14117 11.0827 6.14117C11.0827 6.14117 11.0444 6.15458 11.0587 6.17251C11.0731 6.19049 11.03 6.19936 11.03 6.19936C11.03 6.19936 11.0375 6.22831 11.0253 6.23973C10.9871 6.27558 10.8913 6.24416 10.877 6.23075L10.8196 6.20833L10.7622 6.17251L10.6952 6.19933L10.6761 6.21731H10.6044L10.5996 6.27101L10.7287 6.28442L10.7383 6.39534L10.6857 6.3786H10.6522L10.6379 6.3517L10.6091 6.34718V6.44574L10.6379 6.46819L10.6618 6.49052L10.7097 6.49504L10.7192 6.54876L10.8387 6.55331L10.8531 6.57567L10.9249 6.58018L11.0636 6.71006L11.054 6.75043L11.03 6.76387C11.0397 6.79523 10.968 6.77733 10.968 6.77733V6.80415L11.0013 6.80867L11.0349 6.82654L11.0827 6.7504C11.1353 6.71906 11.1591 6.76387 11.164 6.79074C11.1688 6.81762 11.14 6.81313 11.14 6.81313V6.87592L11.1688 6.88481C11.2167 6.9386 11.1496 6.96999 11.1496 6.96999L11.1353 7.01477C11.1209 7.05511 11.0683 7.04611 11.0683 7.04611L11.0492 7.07301L10.9917 7.08648L11.1053 7.09989C11.1161 7.06403 11.1447 7.05508 11.1591 7.07301C11.1735 7.09096 11.1735 7.12233 11.1735 7.12233L11.2023 7.12679L11.1974 7.17606L11.2262 7.18506V7.32843L11.2596 7.36428C11.317 7.34192 11.317 7.37775 11.2883 7.39562C11.2596 7.4135 11.2787 7.49421 11.2787 7.49421L11.2548 7.51657V7.55245L11.2261 7.57038V7.61964C11.1783 7.59726 11.1208 7.60615 11.1065 7.61964C11.0635 7.59274 10.9726 7.60172 10.9726 7.62416C11.0013 7.66001 10.9392 7.66896 10.9392 7.66896L10.9056 7.70482C10.9296 7.74962 10.8818 7.75406 10.8818 7.75406V7.83923L10.8243 7.88853L10.8292 8.00501C10.8292 8.03638 10.9009 8.04084 10.9152 8.02294C10.9296 8.00501 10.987 8.0588 10.987 8.0588H11.03L11.0396 7.97811L11.0108 7.96467V7.83472L11.0587 7.7854C11.1161 7.7675 11.097 7.90199 11.097 7.9154C11.1018 7.96467 11.1256 7.96021 11.1496 7.95121C11.1974 7.9333 11.1591 8.00058 11.1209 7.99604C11.0826 7.9916 11.1065 8.04084 11.1065 8.04084L11.1305 8.04984L11.0874 8.08118L11.0492 8.12155L11.0013 8.10806L10.944 8.10365L10.9248 8.07221L10.8913 8.06775L10.8865 8.13042L10.8626 8.15733L10.8052 8.21116C10.8818 8.21116 10.7956 8.26035 10.7765 8.26035C10.8195 8.27382 10.7718 8.31419 10.6618 8.28285V8.31416L10.6234 8.31867L10.657 8.35445L10.6952 8.35896L10.6808 8.43511C10.6808 8.49335 10.523 8.45298 10.5087 8.4396L10.5039 8.52026L10.4752 8.52466L10.4799 8.5785L10.4752 8.6547L10.5278 8.64572V8.67711L10.657 8.6816L10.8435 8.49781L10.9535 8.47548C10.963 8.43059 11.0108 8.48445 11.0108 8.48445C11.0587 8.47986 11.0682 8.51128 11.0682 8.51128L11.1305 8.52026C11.183 8.53375 11.1512 8.53845 11.1543 8.55616C11.1591 8.58299 11.183 8.57404 11.183 8.57404L11.1926 8.51579L11.2213 8.52026L11.1926 8.48889L11.1399 8.46645L11.0826 8.44408C11.0443 8.39482 11.0922 8.40377 11.1305 8.40828H11.1926C11.1926 8.40828 11.2644 8.49784 11.2644 8.52026C11.2644 8.54272 11.2979 8.54719 11.2979 8.54719L11.3408 8.54267L11.3552 8.57401H11.3983L11.4127 8.60083H11.4987L11.5035 8.56054L11.4221 8.54719L11.4174 8.5023L11.3601 8.48886C11.3408 8.41274 11.3743 8.39033 11.3983 8.42621L11.427 8.43059L11.4174 8.3634L11.4508 8.35442L11.4413 8.2603L11.4126 8.2514V8.22001L11.5321 8.22458C11.5226 8.16623 11.5369 8.13937 11.5369 8.13937H11.5704L11.5752 8.16184L11.7215 8.17459L11.825 8.06504C11.8198 8.05667 11.8354 8.05154 11.824 8.04081C11.8096 8.02738 11.7905 8.04081 11.7665 8.02738C11.7426 8.01402 11.7665 7.93777 11.7617 7.91987C11.7569 7.90197 11.8431 7.87498 11.8288 7.91538C11.8144 7.95575 11.8288 7.97365 11.8288 7.97365C11.8909 7.91987 11.9435 7.97808 11.9388 7.99155C11.9339 8.00499 11.9722 8.01845 11.9961 8.00499C12.02 7.99155 12.0487 8.04536 12.0391 8.07218C12.0295 8.09903 11.9435 8.0946 11.9388 8.06769C11.9339 8.04079 11.9195 8.04979 11.9101 8.06326C11.9004 8.0767 11.8575 8.08562 11.8335 8.07215C11.8286 8.06945 11.8263 8.06721 11.825 8.06504L11.7215 8.17459L11.7282 8.1752C11.7856 8.20662 11.7569 8.24691 11.7379 8.25589C11.7186 8.26484 11.6852 8.26484 11.6852 8.26484L11.6757 8.28279L11.5513 8.29172L11.5417 8.33657C11.4795 8.32752 11.4557 8.3903 11.47 8.42162C11.4844 8.45295 11.47 8.47986 11.47 8.47986L11.5226 8.5023L11.5895 8.48445C11.5992 8.43957 11.6421 8.43059 11.6804 8.40377C11.7186 8.37686 11.7809 8.45296 11.7617 8.48886C11.7426 8.52466 11.7426 8.53813 11.7426 8.53813L11.7473 8.5785L11.6995 8.59637L11.6613 8.61433L11.6564 8.63674H11.5273L11.5035 8.6591L11.4413 8.6637L11.422 8.69052L11.3791 8.69504C11.3791 8.69504 11.3073 8.72641 11.336 8.76223C11.3647 8.79811 11.2165 8.79363 11.1829 8.74431C11.1733 8.78906 11.1208 8.74877 11.1208 8.74877L11.0682 8.7353L11.0634 8.66816C11.0538 8.6233 10.9629 8.6233 10.9678 8.65472C10.9725 8.68609 10.7955 8.66816 10.7955 8.66816L10.7381 8.6939L10.6855 8.72194L10.6807 8.74431L10.5946 8.75326L10.5564 8.77121L10.5421 8.74431H10.5038L10.4655 8.79365C10.3651 8.79817 10.2695 8.8519 10.279 8.87431C10.2886 8.89667 10.2408 8.9192 10.2408 8.9192L10.1977 8.93248L10.1691 8.97284L10.1117 8.9908L10.102 9.08492L10.0734 9.1028V9.14317L10.0398 9.15206V9.17451L9.99206 9.17899L10.0207 9.24621L10.0591 9.26417C10.126 9.27307 10.0973 9.34932 10.0973 9.34932L10.1355 9.35372L10.1547 9.40299L10.1929 9.4747C10.2073 9.52853 10.2503 9.51507 10.2695 9.51058C10.2886 9.50617 10.3077 9.56434 10.3077 9.56434L10.499 9.56885C10.499 9.56885 10.4895 9.58678 10.5229 9.59573C10.5564 9.60463 10.7764 9.61368 10.786 9.60024C10.7764 9.55988 10.9055 9.5509 10.9582 9.58675C11.0107 9.62255 11.0825 9.60024 11.0825 9.60024L11.1542 9.6808L11.2022 9.77941L11.2834 9.80177L11.3408 9.81526L11.36 9.89144L11.403 9.89592L11.4173 9.94524C11.47 9.98107 11.403 10.0573 11.403 10.0573V10.1558L11.4412 10.1738L11.4364 10.2096L11.4987 10.2678L11.5704 10.2724L11.7522 10.4516L11.8956 10.4919L11.9195 10.5636L11.9578 10.5591L11.9865 10.5367L12.1013 10.5322L12.1587 10.4829L12.2208 10.474L12.7517 10.0573L12.7039 10.0303V9.9318C12.7899 9.87359 12.7947 9.77046 12.7134 9.76151C12.6518 9.75471 12.68 9.69429 12.7374 9.68534L12.7708 9.67195V9.63158L12.8808 9.53754V9.46583L12.6418 9.28204C12.5365 9.24627 12.6418 9.03114 12.7134 9.03563C12.7852 9.04007 12.7087 8.70407 12.7087 8.70407L12.6704 8.68619L12.68 8.57861H12.6274L12.5413 8.68171L12.5174 8.75334C12.5078 8.84754 12.2113 8.82951 12.1969 8.81607C12.1825 8.8026 12.0821 8.76231 12.0821 8.76231C12.0821 8.76231 12.0056 8.70407 11.9913 8.72202C11.9769 8.73998 11.91 8.69958 11.91 8.71305C11.91 8.72651 11.8478 8.68173 11.8478 8.68173L11.7522 8.65034L11.824 8.63685L11.8096 8.58312L11.9338 8.64136C11.9482 8.65921 12.0104 8.65483 12.0104 8.65483L12.0295 8.67724C12.0295 8.67724 12.0678 8.6727 12.0918 8.69963C12.1157 8.72654 12.24 8.70412 12.24 8.70412L12.2735 8.73095L12.326 8.7489L12.4744 8.75342L12.4791 8.66832L12.5078 8.64142L12.5031 8.58758L12.5365 8.56076V8.51598L12.5652 8.507L12.57 8.40847L12.5939 8.40398V8.18888L12.5221 8.12612C12.5174 8.14856 12.4409 8.14856 12.4409 8.14856C12.4409 8.14856 12.4217 8.1799 12.4074 8.1799C12.3931 8.1799 12.4266 8.22017 12.4169 8.2471C12.4074 8.27392 12.3691 8.27392 12.3691 8.27392L12.2973 8.2919L12.2782 8.31434H12.2017L12.1922 8.2561L12.2782 8.23366L12.326 8.2113L12.35 8.16641C12.3547 8.12169 12.4121 8.12612 12.4121 8.12612C12.4121 8.12612 12.5221 8.04097 12.5269 8.00071C12.5318 7.96037 12.57 7.84834 12.6369 7.84834H12.7613C12.8091 7.83036 12.7947 7.77215 12.7947 7.77215L12.857 7.76325L12.8665 7.79459C12.8665 7.79459 12.9526 7.80354 12.9622 7.7901C12.9718 7.77671 12.9909 7.7453 13.0148 7.75876C13.0387 7.77217 13.1152 7.72737 13.1152 7.72737C13.12 7.696 13.2396 7.70944 13.2396 7.70944L13.254 7.66915C13.254 7.66915 13.1727 7.5661 13.1583 7.5661C13.144 7.5661 13.0674 7.50329 13.0578 7.52573C12.9814 7.50783 12.9861 7.40922 12.9861 7.40922L12.9574 7.34654C12.9574 7.31063 12.8858 7.23446 12.8713 7.24349C12.7995 7.1942 12.8522 7.13593 12.8713 7.13144C12.8904 7.12701 12.9383 7.06425 12.9383 7.06425L12.9622 7.00149L13.0435 6.97918L13.0531 6.92088L13.0101 6.91639C13.0101 6.91639 13.0579 6.83573 13.0818 6.83573C13.1058 6.83573 13.2636 6.83573 13.2779 6.82673C13.2922 6.81783 13.3209 6.74612 13.3209 6.73269C13.3209 6.71922 13.3593 6.71473 13.3735 6.71022C13.3879 6.70578 13.4213 6.66993 13.4309 6.652C13.4405 6.63394 13.4071 6.52191 13.3879 6.53984H13.3879Z" fill="white"/>
<path d="M10.7407 8.15447C10.7479 8.14783 10.7551 8.17465 10.7694 8.17131C10.7837 8.16793 10.7909 8.19484 10.7766 8.19484C10.7622 8.19484 10.7622 8.21168 10.7622 8.2184C10.7622 8.22511 10.7622 8.24187 10.7514 8.25197C10.7407 8.26206 10.7299 8.25531 10.7155 8.24862C10.7012 8.2419 10.6941 8.2419 10.6761 8.2419C10.6582 8.2419 10.6725 8.2688 10.6725 8.2688C10.6725 8.2688 10.5971 8.26543 10.6115 8.25531C10.6259 8.24533 10.6402 8.24187 10.6295 8.23513C10.6187 8.22841 10.6295 8.22174 10.6295 8.2083C10.6295 8.19481 10.6654 8.20158 10.6545 8.19147C10.6439 8.18137 10.6548 8.14238 10.6725 8.16456L10.6833 8.141C10.6725 8.13094 10.6797 8.12754 10.6582 8.12092C10.6367 8.11421 10.6545 8.07384 10.6545 8.07384L10.6582 8.04696C10.6653 8.01341 10.737 8.01002 10.7407 8.04021C10.7442 8.07049 10.7407 8.09067 10.7407 8.09067L10.7623 8.09734C10.7623 8.09734 10.7586 8.1176 10.7407 8.1176C10.7227 8.1176 10.7407 8.12756 10.7299 8.13771L10.7407 8.15444V8.15447ZM10.5039 8.1882C10.5147 8.16801 10.5398 8.08064 10.5685 8.10754C10.5971 8.13444 10.6151 8.10754 10.6151 8.10754C10.6151 8.10754 10.6295 8.12103 10.6223 8.14791C10.6151 8.17473 10.6079 8.20166 10.5899 8.20501C10.572 8.20838 10.5577 8.21848 10.5362 8.22185C10.5147 8.22522 10.5039 8.1882 10.5039 8.1882Z" fill="white"/>
</svg>
