<svg width="25" height="26" viewBox="0 0 25 26" fill="none" xmlns="http://www.w3.org/2000/svg">
<rect x="0.5" y="1" width="24" height="24" rx="12" fill="#F2F2F2"/>
<rect x="0.5" y="1" width="24" height="24" rx="12" stroke="#A2A1A1"/>
<path fill-rule="evenodd" clip-rule="evenodd" d="M9.99996 9.11161C9.99996 7.65264 11.1361 6.5011 12.4998 6.5011C13.8636 6.5011 14.9997 7.65264 14.9997 9.11161C14.9997 10.5706 13.8636 11.7221 12.4998 11.7221C11.1361 11.7221 9.99996 10.5706 9.99996 9.11161ZM12.4998 5.5011C10.55 5.5011 8.99996 7.1348 8.99996 9.11161C8.99996 11.0884 10.55 12.7221 12.4998 12.7221C14.4497 12.7221 15.9997 11.0884 15.9997 9.11161C15.9997 7.1348 14.4497 5.5011 12.4998 5.5011ZM9.50036 14.8331C8.56617 14.8331 7.67407 15.2181 7.01923 15.8971C6.36498 16.5755 6.00048 17.4918 6.00048 18.4436V19.9989C6.00048 20.275 6.22434 20.4989 6.50048 20.4989C6.77662 20.4989 7.00048 20.275 7.00048 19.9989V18.4436C7.00048 17.7456 7.2681 17.0796 7.73902 16.5913C8.20935 16.1036 8.84332 15.8331 9.50036 15.8331H15.5001C16.1572 15.8331 16.7911 16.1036 17.2615 16.5913C17.7324 17.0796 18 17.7456 18 18.4436V19.9989C18 20.275 18.2239 20.4989 18.5 20.4989C18.7761 20.4989 19 20.275 19 19.9989V18.4436C19 17.4918 18.6355 16.5755 17.9813 15.8971C17.3264 15.2181 16.4343 14.8331 15.5001 14.8331H9.50036Z" fill="url(#paint0_linear_3134_21877)"/>
<defs>
<linearGradient id="paint0_linear_3134_21877" x1="13.4797" y1="20.4989" x2="13.4797" y2="5.5011" gradientUnits="userSpaceOnUse">
<stop stop-color="#248DB6"/>
<stop offset="1" stop-color="#7DD9FF"/>
</linearGradient>
</defs>
</svg>
