<svg width="117" height="18" viewBox="0 0 117 18" fill="none" xmlns="http://www.w3.org/2000/svg">
<path d="M31.6564 10.3114L32.5878 9.52062L33.0096 7.11271L32.3594 6.33936H27.614L26.911 10.3114H31.6564ZM31.0938 15.7597L32.1834 14.8458L32.5704 12.6315L31.8144 11.6998H26.665L25.9446 15.7597H31.0938ZM26.2081 4.8984H33.2733L34.7319 6.65587L34.1343 10.0128L33.1676 10.8387L34.2928 12.2097L33.6951 15.584L31.797 17.2009H24.0463L26.2081 4.8984Z" fill="#231F20"/>
<path d="M42.4999 12.0514L42.746 10.6279L42.1132 9.85455H39.0023L38.071 10.6279L37.8249 12.0514H42.4999ZM35.5755 15.4611L36.5243 9.99539L38.3522 8.44868H42.992L44.4507 10.2238L43.9057 13.3344H37.5965L37.2976 15.0217L37.9304 15.7951H41.0761L41.9726 15.0394L42.0781 14.4417H43.7127L43.484 15.6721L41.6914 17.2009H36.9988L35.5755 15.4611Z" fill="#231F20"/>
<path d="M46.5245 15.4611L47.5086 9.85455H45.9268L46.1729 8.44868H47.7898L48.2994 5.6016H49.8988L49.389 8.44868H52.0955L51.8496 9.87222H49.1432L48.2469 15.004L48.8971 15.7774H50.8128L50.5667 17.2009H47.9657L46.5245 15.4611Z" fill="#231F20"/>
<path d="M60.1277 10.3114L61.059 9.52062L61.4808 7.11271L60.8306 6.33936H56.0852L55.3823 10.3114H60.1277ZM59.5651 15.7597L60.6547 14.8458L61.0416 12.6315L60.2857 11.6998H55.1362L54.4159 15.7597H59.5651ZM54.6794 4.8984H61.7446L63.2032 6.65587L62.6055 10.0128L61.6388 10.8387L62.764 12.2097L62.1663 15.584L60.2683 17.2009H52.5175L54.6794 4.8984Z" fill="#231F20"/>
<path d="M69.6004 15.7773L70.5321 15.0039L71.2878 10.6454L70.6373 9.87208H67.4737L66.5424 10.6454L65.7693 15.0039L66.4194 15.7773H69.6004ZM64.0469 15.461L64.9956 9.99526L66.8235 8.44854H71.5336L72.9925 10.2237L72.0434 15.6894L70.2683 17.201H65.4881L64.0469 15.461Z" fill="#231F20"/>
<path d="M79.741 15.7773L80.6726 15.0039L81.4283 10.6454L80.7778 9.87208H77.6142L76.6829 10.6454L75.9098 15.0039L76.5599 15.7773H79.741ZM74.1874 15.461L75.1361 9.99526L76.964 8.44854H81.6741L83.133 10.2237L82.1839 15.6894L80.4088 17.201H75.6286L74.1874 15.461Z" fill="#231F20"/>
<path d="M84.0294 15.5842L84.2227 14.5824H85.8398L85.7343 15.2323L86.2263 15.8126H89.3194L90.0224 15.2323L90.216 14.0728L89.7238 13.4574H85.9978L84.7326 11.9287L85.1016 9.837L86.7361 8.44854H91.0244L92.3952 10.0831L92.2018 11.0672H90.5673L90.6905 10.417L90.1983 9.837H87.3335L86.6306 10.417L86.4373 11.5066L86.9292 12.1217H90.6377L91.9207 13.6859L91.5514 15.8126L89.9171 17.201H85.3653L84.0294 15.5842Z" fill="#231F20"/>
<path d="M94.434 15.4611L95.4181 9.85455H93.8363L94.0824 8.44868H95.6993L96.2089 5.6016H97.8083L97.2985 8.44868H100.005L99.7591 9.87222H97.0527L96.1564 15.004L96.8066 15.7774H98.7223L98.4762 17.2009H95.8752L94.434 15.4611Z" fill="#231F20"/>
<path d="M107.123 12.0514L107.369 10.6279L106.736 9.85455H103.625L102.694 10.6279L102.448 12.0514H107.123ZM100.198 15.4611L101.147 9.99539L102.975 8.44868H107.615L109.074 10.2238L108.529 13.3344H102.219L101.921 15.0217L102.553 15.7951H105.699L106.595 15.0394L106.701 14.4417H108.336L108.107 15.6721L106.314 17.2009H101.622L100.198 15.4611Z" fill="#231F20"/>
<path d="M111.587 8.44854H113.151L112.87 9.97758L114.662 8.44854H117L116.736 9.87234H114.82L112.641 11.7351L111.675 17.201H110.04L111.587 8.44854Z" fill="#231F20"/>
<mask id="mask0_3123_1321" style="mask-type:luminance" maskUnits="userSpaceOnUse" x="11" y="13" width="8" height="5">
<path d="M18.0269 13.2172L17.7176 14.9661L15.0826 17.2009H11.7278L14.3628 14.9661L14.672 13.2172H18.0269Z" fill="white"/>
</mask>
<g mask="url(#mask0_3123_1321)">
<path d="M18.0269 13.2172L17.7176 14.9661L15.0826 17.2009H11.7278L14.3628 14.9661L14.672 13.2172H18.0269Z" fill="url(#paint0_linear_3123_1321)"/>
</g>
<mask id="mask1_3123_1321" style="mask-type:luminance" maskUnits="userSpaceOnUse" x="14" y="9" width="5" height="4">
<path d="M18.518 10.4236L18.2009 12.2167H14.8487L15.1657 10.4236L14.251 9.29579H17.6033L18.518 10.4236Z" fill="white"/>
</mask>
<g mask="url(#mask1_3123_1321)">
<path d="M18.518 10.4236L18.2009 12.2167H14.8487L15.1657 10.4236L14.251 9.29579H17.6033L18.518 10.4236Z" fill="url(#paint1_linear_3123_1321)"/>
</g>
<mask id="mask2_3123_1321" style="mask-type:luminance" maskUnits="userSpaceOnUse" x="14" y="5" width="5" height="4">
<path d="M17.5045 8.29529L18.2841 7.62484L18.6869 5.37181H15.332L14.9292 7.62484L14.1522 8.29529H17.5045Z" fill="white"/>
</mask>
<g mask="url(#mask2_3123_1321)">
<path d="M17.5045 8.29529L18.2841 7.62484L18.6869 5.37181H15.332L14.9292 7.62484L14.1522 8.29529H17.5045Z" fill="url(#paint2_linear_3123_1321)"/>
</g>
<mask id="mask3_3123_1321" style="mask-type:luminance" maskUnits="userSpaceOnUse" x="13" y="0" width="7" height="5">
<path d="M19.0819 3.18125L18.861 4.41821H15.5061L15.727 3.18125L13.6845 0.733327H17.0367L19.0819 3.18125Z" fill="white"/>
</mask>
<g mask="url(#mask3_3123_1321)">
<path d="M19.0819 3.18125L18.861 4.41821H15.5061L15.727 3.18125L13.6845 0.733327H17.0367L19.0819 3.18125Z" fill="url(#paint3_linear_3123_1321)"/>
</g>
<mask id="mask4_3123_1321" style="mask-type:luminance" maskUnits="userSpaceOnUse" x="1" y="5" width="14" height="4">
<path d="M13.1492 8.29529L13.9288 7.62484L14.3316 5.37181H2.07894L1.56441 8.29529H13.1492Z" fill="white"/>
</mask>
<g mask="url(#mask4_3123_1321)">
<path d="M13.1492 8.29529L13.9288 7.62484L14.3316 5.37181H2.07894L1.56441 8.29529H13.1492Z" fill="url(#paint4_linear_3123_1321)"/>
</g>
<mask id="mask5_3123_1321" style="mask-type:luminance" maskUnits="userSpaceOnUse" x="0" y="13" width="14" height="5">
<path d="M13.6715 13.2172L13.3623 14.9661L10.7272 17.2009H0L0.699037 13.2172H13.6715Z" fill="white"/>
</mask>
<g mask="url(#mask5_3123_1321)">
<path d="M13.6715 13.2172L13.3623 14.9661L10.7272 17.2009H0L0.699037 13.2172H13.6715Z" fill="url(#paint5_linear_3123_1321)"/>
</g>
<mask id="mask6_3123_1321" style="mask-type:luminance" maskUnits="userSpaceOnUse" x="0" y="9" width="15" height="4">
<path d="M14.1626 10.4236L13.8456 12.2167H0.875748L1.38768 9.29579H13.2479L14.1626 10.4236Z" fill="white"/>
</mask>
<g mask="url(#mask6_3123_1321)">
<path d="M14.1626 10.4236L13.8456 12.2167H0.875748L1.38768 9.29579H13.2479L14.1626 10.4236Z" fill="url(#paint6_linear_3123_1321)"/>
</g>
<mask id="mask7_3123_1321" style="mask-type:luminance" maskUnits="userSpaceOnUse" x="2" y="0" width="13" height="5">
<path d="M14.7265 3.18125L14.5056 4.41821H2.24518L2.89224 0.733327H12.6814L14.7265 3.18125Z" fill="white"/>
</mask>
<g mask="url(#mask7_3123_1321)">
<path d="M14.7265 3.18125L14.5056 4.41821H2.24518L2.89224 0.733327H12.6814L14.7265 3.18125Z" fill="url(#paint7_linear_3123_1321)"/>
</g>
<defs>
<linearGradient id="paint0_linear_3123_1321" x1="14.3311" y1="19.065" x2="16.8011" y2="1.62938" gradientUnits="userSpaceOnUse">
<stop stop-color="#252ED6"/>
<stop offset="0.877278" stop-color="#00FC77"/>
<stop offset="1" stop-color="#00FC77"/>
</linearGradient>
<linearGradient id="paint1_linear_3123_1321" x1="15.3163" y1="17.3998" x2="17.2814" y2="3.52844" gradientUnits="userSpaceOnUse">
<stop stop-color="#252ED6"/>
<stop offset="0.877278" stop-color="#00FC77"/>
<stop offset="1" stop-color="#00FC77"/>
</linearGradient>
<linearGradient id="paint2_linear_3123_1321" x1="14.8808" y1="17.6951" x2="17.0344" y2="2.49334" gradientUnits="userSpaceOnUse">
<stop stop-color="#252ED6"/>
<stop offset="0.877278" stop-color="#00FC77"/>
<stop offset="1" stop-color="#00FC77"/>
</linearGradient>
<linearGradient id="paint3_linear_3123_1321" x1="13.9669" y1="19.0135" x2="16.4369" y2="1.57777" gradientUnits="userSpaceOnUse">
<stop stop-color="#252ED6"/>
<stop offset="0.877278" stop-color="#00FC77"/>
<stop offset="1" stop-color="#00FC77"/>
</linearGradient>
<linearGradient id="paint4_linear_3123_1321" x1="6.50132" y1="17.0454" x2="8.72918" y2="1.31926" gradientUnits="userSpaceOnUse">
<stop stop-color="#252ED6"/>
<stop offset="0.877278" stop-color="#00FC77"/>
<stop offset="1" stop-color="#00FC77"/>
</linearGradient>
<linearGradient id="paint5_linear_3123_1321" x1="6.44259" y1="17.9843" x2="8.91264" y2="0.548673" gradientUnits="userSpaceOnUse">
<stop stop-color="#252ED6"/>
<stop offset="0.877278" stop-color="#00FC77"/>
<stop offset="1" stop-color="#00FC77"/>
</linearGradient>
<linearGradient id="paint6_linear_3123_1321" x1="6.73657" y1="16.8446" x2="8.82622" y2="2.09419" gradientUnits="userSpaceOnUse">
<stop stop-color="#252ED6"/>
<stop offset="0.877278" stop-color="#00FC77"/>
<stop offset="1" stop-color="#00FC77"/>
</linearGradient>
<linearGradient id="paint7_linear_3123_1321" x1="6.47568" y1="17.9891" x2="8.94574" y2="0.553342" gradientUnits="userSpaceOnUse">
<stop stop-color="#252ED6"/>
<stop offset="0.877278" stop-color="#00FC77"/>
<stop offset="1" stop-color="#00FC77"/>
</linearGradient>
</defs>
</svg>
